<?xml version="1.0" encoding="utf-8"?>
<!-- Generator: Adobe Illustrator 25.1.0, SVG Export Plug-In . SVG Version: 6.00 Build 0)  -->
<svg version="1.1" id="Layer_1" xmlns="http://www.w3.org/2000/svg" xmlns:xlink="http://www.w3.org/1999/xlink" x="0px" y="0px"
	 viewBox="0 0 1500 750" style="enable-background:new 0 0 1500 750;" xml:space="preserve">
<style type="text/css">
	.st0{fill:#EBEBEB;}
	.st1{fill:#E0E0E0;}
	.st2{fill:#F5F5F5;}
	.st3{fill:#FAFBFB;}
	.st4{fill:#FFFFFF;}
	.st5{fill:none;stroke:#F9F9F9;stroke-width:0.25;stroke-miterlimit:10;}
	.st6{fill:#263238;}
	.st7{fill:#E7515B;}
	.st8{fill:#455B64;}
	.st9{opacity:0.4;}
	.st10{fill:#B78876;}
	.st11{fill:#AA6551;}
	.st12{opacity:0.3;}
	.st13{fill:none;stroke:#43494E;stroke-width:0.05;stroke-miterlimit:10;}
</style>
<g>
	<g>
		<g>
			<g>
				<g>
					<path class="st0" d="M74.5,648.72h46.3c3.26,0,5.9-2.64,5.9-5.9v-14.26c0-5.49-4.45-9.94-9.94-9.94h-42.6L74.5,648.72z"/>
				</g>
			</g>
		</g>
		<g>
			<g>
				<g>
					<g>
						<g>
							<path class="st0" d="M120.02,657.69H28.99c-2.48,0-4.49-2.01-4.49-4.49l0,0c0-2.48,2.01-4.49,4.49-4.49h91.03
								c2.48,0,4.49,2.01,4.49,4.49l0,0C124.51,655.68,122.5,657.69,120.02,657.69z"/>
						</g>
					</g>
				</g>
				<g>
					<g>
						<g>
							<path class="st1" d="M10.43,529.2l50.08-0.89l31.79,120.14l-67.81,0.68L-1.06,543.81C-2.86,536.37,2.78,529.2,10.43,529.2z"
								/>
						</g>
					</g>
				</g>
				<g>
					<g>
						<g>
							<polygon class="st0" points="35.38,657.69 20.4,744.78 24.5,744.78 44.2,657.69 							"/>
						</g>
					</g>
				</g>
				<g>
					<g>
						<g>
							<polygon class="st1" points="70.71,657.69 54.78,744.78 58.89,744.78 79.53,657.69 							"/>
						</g>
					</g>
				</g>
				<g>
					<g>
						<g>
							<polygon class="st0" points="109.78,657.69 127.54,744.78 123.44,744.78 100.96,657.69 							"/>
						</g>
					</g>
				</g>
			</g>
		</g>
		<g>
			<g>
				<g>
					<path class="st0" d="M54.78,528.31l24.78,120.27h19.01L78.7,542.31c-1.5-8.11-8.58-14-16.83-14H54.78z"/>
				</g>
			</g>
		</g>
	</g>
</g>
<g>
	<g>
		<g>
			<g>
				<g>
					<g>
						
							<rect x="112.29" y="568.76" transform="matrix(-1 -1.224647e-16 1.224647e-16 -1 293.1357 1140.8477)" class="st0" width="68.55" height="3.33"/>
					</g>
				</g>
			</g>
			<g>
				<g>
					<g>
						<polygon class="st0" points="191.46,572.09 204.32,523.91 150.8,523.91 139.16,572.09 						"/>
					</g>
				</g>
			</g>
		</g>
		<g>
			<g>
				<g>
					<polygon class="st1" points="142.36,568.44 190.18,568.44 201.31,526.13 153.25,526.13 					"/>
				</g>
			</g>
		</g>
	</g>
	<g>
		<g>
			<g>
				<g>
					<g>
						<rect x="98.71" y="581.96" class="st2" width="3.46" height="165.28"/>
					</g>
				</g>
			</g>
			<g>
				<g>
					<g>
						<rect x="102.18" y="582.44" class="st0" width="3.46" height="164.8"/>
					</g>
				</g>
			</g>
		</g>
		<g>
			<g>
				<g>
					<g>
						<rect x="311.99" y="581.96" class="st0" width="3.46" height="165.28"/>
					</g>
				</g>
			</g>
			<g>
				<g>
					<g>
						<rect x="315.45" y="582.44" class="st1" width="3.46" height="164.8"/>
					</g>
				</g>
			</g>
		</g>
		<g>
			<g>
				<g>
					<rect x="83.77" y="572.36" class="st1" width="262.95" height="13.56"/>
				</g>
			</g>
		</g>
		<g>
			<g>
				<g>
					<rect x="197.96" y="585.92" class="st0" width="115.76" height="22.44"/>
				</g>
			</g>
		</g>
		<g>
			<g>
				<g>
					<path class="st1" d="M261,595.59c0,1.42-1.15,2.58-2.58,2.58c-1.42,0-2.58-1.15-2.58-2.58c0-1.42,1.15-2.58,2.58-2.58
						C259.84,593.01,261,594.16,261,595.59z"/>
				</g>
			</g>
		</g>
	</g>
</g>
<g>
	<g>
		<g>
			<g>
				<g>
					<g>
						<rect x="10.22" y="323.65" class="st1" width="144.1" height="6.42"/>
					</g>
				</g>
			</g>
			<g>
				<g>
					<g>
						<rect x="33.81" y="326.74" class="st1" width="5.85" height="21.91"/>
					</g>
				</g>
			</g>
			<g>
				<g>
					<g>
						<rect x="121.14" y="326.74" class="st1" width="5.85" height="21.91"/>
					</g>
				</g>
			</g>
		</g>
	</g>
	<g>
		<g>
			<g>
				<g>
					<g>
						<path class="st0" d="M99.71,268.31c0.23-0.23,1.84,0.94,3.94,3.34c1.06,1.19,2.2,2.72,3.34,4.5c1.12,1.79,2.24,3.85,3.21,6.1
							c0.96,2.26,1.67,4.49,2.2,6.54c0.5,2.06,0.82,3.95,0.95,5.55c0.29,3.2,0.03,5.18-0.29,5.19c-0.76,0.06-1.45-7.68-5.18-16.26
							C104.25,274.64,99.15,268.83,99.71,268.31z"/>
					</g>
				</g>
			</g>
		</g>
		<g>
			<g>
				<g>
					<g>
						<path class="st0" d="M115.56,305.95c-0.33,0.04-1.24-4.19-2.08-11.13c-0.86-6.93-1.56-16.57-1.83-27.21
							c-0.29-10.65-0.17-20.28,0.04-27.24c0.22-6.97,0.54-11.27,0.89-11.27c0.35,0,0.66,4.31,0.9,11.27
							c0.25,6.96,0.42,16.57,0.7,27.18c0.28,10.6,0.69,20.18,1.09,27.12C115.65,301.6,115.92,305.9,115.56,305.95z"/>
					</g>
				</g>
			</g>
		</g>
		<g>
			<g>
				<g>
					<g>
						<path class="st0" d="M130.89,245.45c0.33,0.19-1,3.15-2.73,8.09c-1.77,4.92-3.95,11.84-6.09,19.55
							c-2.1,7.72-3.75,14.78-4.74,19.93c-1.03,5.14-1.4,8.36-1.78,8.36c-0.32,0-0.58-3.33,0.01-8.63c0.55-5.3,1.95-12.52,4.07-20.34
							c2.16-7.8,4.64-14.72,6.87-19.55C128.7,248,130.61,245.28,130.89,245.45z"/>
					</g>
				</g>
			</g>
		</g>
		<g>
			<g>
				<g>
					<path class="st1" d="M95.83,297.1v8.47c0,9.99,7.99,18.08,17.85,18.08l0,0c9.86,0,17.85-8.1,17.85-18.08v-8.47H95.83z"/>
				</g>
			</g>
		</g>
		<g>
			<g>
				<g>
					<g>
						<path class="st3" d="M131.85,304.27c0,0.14-8.07,0.26-18.01,0.26c-9.95,0-18.01-0.11-18.01-0.26s8.06-0.26,18.01-0.26
							C123.79,304.01,131.85,304.12,131.85,304.27z"/>
					</g>
				</g>
			</g>
		</g>
		<g>
			<g>
				<g>
					<g>
						<path class="st3" d="M131.85,306.62c0,0.14-8.07,0.26-18.01,0.26c-9.95,0-18.01-0.11-18.01-0.26c0-0.14,8.06-0.26,18.01-0.26
							C123.79,306.36,131.85,306.48,131.85,306.62z"/>
					</g>
				</g>
			</g>
		</g>
	</g>
	<g>
		<g>
			<g>
				<g>
					
						<rect x="44.07" y="279.28" transform="matrix(5.282667e-03 1 -1 5.282667e-03 346.7686 249.2904)" class="st1" width="8.01" height="39.34"/>
				</g>
			</g>
		</g>
	</g>
	<g>
		<g>
			<g>
				<g>
					<g>
						
							<rect x="44.32" y="295.6" transform="matrix(5.288210e-03 1 -1 5.288210e-03 367.7953 265.3068)" class="st2" width="12.44" height="43.84"/>
					</g>
				</g>
			</g>
		</g>
		<g>
			<g>
				<g>
					<g>
						<path class="st1" d="M64.05,323.54c-0.12,0-0.21-2.79-0.21-6.22c0-3.44,0.1-6.22,0.21-6.22c0.12,0,0.21,2.79,0.21,6.22
							C64.26,320.76,64.17,323.54,64.05,323.54z"/>
					</g>
				</g>
			</g>
		</g>
		<g>
			<g>
				<g>
					<g>
						<path class="st1" d="M65.89,323.54c-0.12,0-0.21-2.79-0.21-6.22c0-3.44,0.1-6.22,0.21-6.22c0.12,0,0.21,2.79,0.21,6.22
							C66.1,320.76,66.01,323.54,65.89,323.54z"/>
					</g>
				</g>
			</g>
		</g>
		<g>
			<g>
				<g>
					<g>
						<path class="st1" d="M35.25,323.54c-0.12,0-0.21-2.79-0.21-6.22c0-3.44,0.1-6.22,0.21-6.22c0.12,0,0.21,2.79,0.21,6.22
							C35.46,320.76,35.37,323.54,35.25,323.54z"/>
					</g>
				</g>
			</g>
		</g>
		<g>
			<g>
				<g>
					<g>
						<path class="st1" d="M37.09,323.54c-0.12,0-0.21-2.79-0.21-6.22c0-3.44,0.1-6.22,0.21-6.22c0.12,0,0.21,2.79,0.21,6.22
							C37.3,320.76,37.21,323.54,37.09,323.54z"/>
					</g>
				</g>
			</g>
		</g>
		<g>
			<g>
				<g>
					<g>
						<path class="st1" d="M41.11,317.52c0-0.12,4.42-0.22,9.88-0.22c5.46,0,9.88,0.1,9.88,0.22c0,0.12-4.42,0.22-9.88,0.22
							C45.53,317.74,41.11,317.64,41.11,317.52z"/>
					</g>
				</g>
			</g>
		</g>
	</g>
	<g>
		<g>
			<g>
				<g>
					<g>
						
							<rect x="57.88" y="279.75" transform="matrix(5.282342e-03 1 -1 5.282342e-03 368.3576 243.2958)" class="st0" width="8.01" height="54.1"/>
					</g>
				</g>
			</g>
		</g>
		<g>
			<g>
				<g>
					<ellipse class="st1" cx="81.21" cy="307.08" rx="2.56" ry="2.59"/>
				</g>
			</g>
		</g>
		<g>
			<g>
				<g>
					
						<rect x="55.27" y="288.97" transform="matrix(-1.836970e-16 1 -1 -1.836970e-16 363.1531 251.0071)" class="st1" width="1.6" height="36.22"/>
				</g>
			</g>
		</g>
	</g>
</g>
<g>
	<g>
		<g>
			<rect x="1409.89" y="278.02" class="st1" width="71.66" height="103.87"/>
		</g>
	</g>
	<g>
		<g>
			<rect x="1406.3" y="278.02" class="st2" width="71.66" height="103.87"/>
		</g>
	</g>
	<g>
		<g>
			<g>
				<rect x="1415.2" y="289.27" class="st4" width="53.86" height="81.37"/>
			</g>
		</g>
		<g>
			<g>
				<g>
					<path class="st1" d="M1469.06,370.64c0,0-0.01-0.14-0.01-0.4c0-0.27-0.01-0.65-0.01-1.15c0-1.02-0.01-2.52-0.02-4.46
						c-0.01-3.9-0.03-9.58-0.05-16.76c-0.02-14.35-0.05-34.67-0.09-58.59l0.18,0.18c-16.45,0-34.69,0.01-53.85,0.02h-0.01l0.19-0.19
						c-0.01,30.7-0.03,59-0.04,81.37l-0.16-0.16c16.4,0.03,29.84,0.06,39.2,0.08c4.68,0.02,8.33,0.03,10.83,0.04
						c1.24,0.01,2.19,0.01,2.84,0.02C1468.72,370.63,1469.06,370.64,1469.06,370.64s-0.32,0.01-0.95,0.02
						c-0.65,0-1.59,0.01-2.81,0.02c-2.49,0.01-6.13,0.02-10.8,0.04c-9.38,0.02-22.85,0.05-39.3,0.08l-0.16,0l0-0.16
						c-0.01-22.37-0.02-50.67-0.04-81.37l0-0.19h0.2h0.01c19.16,0.01,37.4,0.01,53.85,0.02h0.18l0,0.18
						c-0.04,23.98-0.07,44.33-0.09,58.71c-0.02,7.16-0.04,12.83-0.05,16.72c-0.01,1.93-0.02,3.41-0.02,4.43
						c0,0.49-0.01,0.87-0.01,1.13C1469.06,370.52,1469.06,370.64,1469.06,370.64z"/>
				</g>
			</g>
		</g>
	</g>
	<g>
		<g>
			<g>
				<path class="st5" d="M1466.56,289.81"/>
			</g>
		</g>
	</g>
	<g>
		<g>
			<g>
				<path class="st1" d="M1478.16,278.02c0.04,0.03-0.44,0.74-1.28,1.86c-0.83,1.11-2.01,2.63-3.36,4.26
					c-1.35,1.64-2.61,3.09-3.54,4.12c-0.93,1.03-1.54,1.64-1.58,1.61c-0.04-0.04,0.49-0.71,1.37-1.79c0.96-1.17,2.14-2.6,3.45-4.19
					c1.31-1.59,2.49-3.02,3.45-4.19C1477.55,278.64,1478.12,277.99,1478.16,278.02z"/>
			</g>
		</g>
	</g>
	<g>
		<g>
			<g>
				<path class="st4" d="M1469.33,370.38c2.67,4.25,5.83,8.2,9.39,11.75"/>
			</g>
		</g>
		<g>
			<g>
				<g>
					<path class="st1" d="M1478.72,382.13c-0.04,0.04-0.67-0.52-1.64-1.49c-0.96-0.97-2.24-2.37-3.54-4
						c-1.3-1.63-2.39-3.18-3.12-4.34c-0.74-1.15-1.14-1.9-1.09-1.93c0.05-0.03,0.53,0.66,1.32,1.77c0.79,1.11,1.9,2.63,3.2,4.25
						c1.3,1.62,2.53,3.04,3.44,4.05C1478.2,381.46,1478.76,382.09,1478.72,382.13z"/>
				</g>
			</g>
		</g>
	</g>
	<g>
		<g>
			<g>
				<path class="st4" d="M1406.29,381.81c3.13-3.86,6.26-7.72,9.39-11.58"/>
			</g>
		</g>
		<g>
			<g>
				<g>
					<path class="st1" d="M1415.67,370.23c0.08,0.07-1.95,2.72-4.54,5.91c-2.59,3.2-4.76,5.74-4.84,5.67
						c-0.08-0.07,1.95-2.71,4.54-5.91C1413.42,372.7,1415.59,370.16,1415.67,370.23z"/>
				</g>
			</g>
		</g>
	</g>
	<g>
		<g>
			<g>
				<path class="st1" d="M1406.3,278.02c0.08-0.07,2.12,2.37,4.56,5.45c2.43,3.08,4.34,5.62,4.25,5.69
					c-0.08,0.07-2.12-2.37-4.56-5.45C1408.12,280.64,1406.21,278.09,1406.3,278.02z"/>
			</g>
		</g>
	</g>
	<g>
		<g>
			<rect x="1434.24" y="305.79" class="st1" width="18.03" height="51.2"/>
		</g>
	</g>
</g>
<g>
	<g>
		<path class="st6" d="M445.03,749.62c0,0.14-99.87,0.26-223.04,0.26c-123.21,0-223.06-0.12-223.06-0.26s99.85-0.26,223.06-0.26
			C345.16,749.36,445.03,749.47,445.03,749.62z"/>
	</g>
</g>
<g>
	<g>
		<g>
			<g>
				<g>
					<path class="st7" d="M1411.14,655.01c9.62,3.36,22.16,0.36,30.39-5.65c8.23-6.01,14.15-14.62,19.4-23.35
						c2.24-3.73,4.43-7.61,5.13-11.9c0.71-4.29-0.33-9.12-3.66-11.91c-5.17-4.35-13.09-2.14-18.96,1.2
						C1425.07,613.86,1412.52,633.91,1411.14,655.01"/>
				</g>
			</g>
		</g>
		<g>
			<g>
				<g>
					<path class="st7" d="M1421.47,678.03c5.78,7.62,15.7,11.01,25.25,11.46c9.55,0.44,18.99-2.2,27.92-5.62
						c3.24-1.24,6.78-2.95,7.89-6.23c0.84-2.49-0.02-5.32-1.69-7.35s-4.03-3.36-6.45-4.39c-8.79-3.74-18.86-3.92-28.1-1.52
						C1437.05,666.76,1428.97,672.12,1421.47,678.03"/>
				</g>
			</g>
		</g>
		<g>
			<g>
				<g>
					<path class="st7" d="M1411,613.8c7.96,0.16,13.99-6.82,17.59-13.92c4.99-9.83,6.68-21.31,4.74-32.16
						c-0.73-4.07-2.27-8.46-5.91-10.41c-3.7-1.99-8.51-0.68-11.62,2.15c-3.1,2.83-4.8,6.87-6.04,10.89
						C1405.5,584.18,1406.42,600.07,1411,613.8"/>
				</g>
			</g>
		</g>
		<g>
			<g>
				<g>
					<path class="st7" d="M1384.85,657.84c13.57-23.1,15.84-51.37,7.82-76.94c-1.3-4.15-3.76-8.89-8.09-9.17
						c-4.8-0.3-7.82,5.05-9.14,9.68c-4.65,16.24-3.66,33.48-2.64,50.34C1373.43,642.14,1377,651.01,1384.85,657.84"/>
				</g>
			</g>
		</g>
		<g>
			<g>
				<g>
					<path class="st7" d="M1370.73,667.34c-4.92-15.82-17.43-29.09-32.94-34.93c-3.61-1.36-8.19-2.13-10.88,0.63
						c-2.64,2.71-1.82,7.23-0.13,10.61c2.73,5.46,7.17,9.84,11.59,14.05c4.02,3.83,8.2,7.67,13.28,9.89
						C1356.74,669.81,1366.08,670.37,1370.73,667.34"/>
				</g>
			</g>
		</g>
		<g>
			<g>
				<g>
					<g>
						<path class="st6" d="M1454.9,607.99c0.01,0.01-0.07,0.08-0.24,0.21c-0.19,0.15-0.43,0.34-0.73,0.57
							c-0.69,0.52-1.64,1.23-2.85,2.13c-0.62,0.46-1.31,0.97-2.06,1.52c-0.74,0.57-1.52,1.24-2.37,1.93
							c-1.68,1.4-3.67,2.92-5.66,4.82c-1.02,0.93-2.09,1.9-3.2,2.91c-1.11,1.02-2.17,2.16-3.33,3.3c-2.34,2.25-4.6,4.87-7.03,7.58
							c-4.71,5.55-9.54,11.95-14,19.08c-4.39,7.17-7.95,14.36-10.81,21.06c-1.33,3.39-2.67,6.58-3.63,9.68
							c-0.5,1.54-1.05,3.01-1.47,4.45c-0.41,1.45-0.8,2.84-1.17,4.16c-0.81,2.64-1.27,5.09-1.78,7.22
							c-0.24,1.07-0.48,2.06-0.67,2.98c-0.16,0.92-0.31,1.76-0.44,2.53c-0.27,1.48-0.48,2.65-0.63,3.5
							c-0.07,0.37-0.13,0.67-0.18,0.91c-0.04,0.2-0.07,0.31-0.08,0.31c-0.01,0,0-0.11,0.02-0.32c0.03-0.24,0.07-0.55,0.12-0.92
							c0.12-0.85,0.3-2.03,0.51-3.52c0.12-0.77,0.25-1.62,0.39-2.54c0.16-0.93,0.39-1.92,0.62-3c0.47-2.14,0.91-4.61,1.69-7.26
							c0.36-1.34,0.74-2.73,1.14-4.19c0.4-1.45,0.94-2.93,1.44-4.48c0.95-3.11,2.27-6.33,3.59-9.74
							c2.84-6.74,6.41-13.96,10.81-21.17c4.47-7.16,9.34-13.58,14.1-19.13c2.46-2.71,4.74-5.33,7.1-7.56
							c1.16-1.13,2.24-2.28,3.36-3.29c1.13-1,2.21-1.97,3.24-2.89c2.02-1.88,4.04-3.38,5.74-4.76c0.86-0.68,1.65-1.33,2.4-1.89
							c0.76-0.54,1.47-1.03,2.1-1.48c1.23-0.86,2.21-1.54,2.92-2.03c0.31-0.21,0.56-0.38,0.77-0.51
							C1454.8,608.03,1454.89,607.98,1454.9,607.99z"/>
					</g>
				</g>
			</g>
		</g>
		<g>
			<g>
				<g>
					<g>
						<path class="st6" d="M1472.87,672.03c-0.01,0.02-0.33-0.03-0.93-0.16c-0.61-0.11-1.49-0.34-2.64-0.54
							c-2.3-0.45-5.65-0.96-9.83-1.2c-8.3-0.53-20.11,0.45-31.92,5.37c-11.82,4.91-20.83,12.6-26.31,18.86
							c-2.77,3.13-4.77,5.87-6.07,7.82c-0.68,0.96-1.13,1.74-1.48,2.25c-0.34,0.52-0.53,0.78-0.55,0.77
							c-0.02-0.01,0.13-0.3,0.44-0.84c0.32-0.53,0.74-1.34,1.39-2.32c1.24-1.99,3.2-4.79,5.94-7.98
							c5.42-6.38,14.48-14.19,26.41-19.15c11.92-4.96,23.85-5.88,32.19-5.23c4.2,0.3,7.56,0.88,9.85,1.41
							c1.15,0.23,2.03,0.5,2.62,0.65C1472.57,671.91,1472.88,672.01,1472.87,672.03z"/>
					</g>
				</g>
			</g>
		</g>
		<g>
			<g>
				<g>
					<g>
						<path class="st6" d="M1422.74,566.54c0.01,0-0.01,0.12-0.05,0.36c-0.06,0.27-0.13,0.61-0.22,1.04
							c-0.21,0.95-0.51,2.28-0.89,3.98c-0.78,3.45-1.97,8.43-3.47,14.58c-2.99,12.3-7.34,29.23-11.86,48
							c-2.25,9.39-4.29,18.36-6.04,26.54c-1.72,8.18-3.19,15.57-4.28,21.8c-0.59,3.11-1.03,5.94-1.44,8.41
							c-0.43,2.48-0.76,4.62-1.01,6.37c-0.27,1.71-0.48,3.06-0.63,4.03c-0.07,0.43-0.13,0.77-0.18,1.05
							c-0.04,0.23-0.07,0.35-0.08,0.35c-0.01,0,0-0.12,0.02-0.36c0.03-0.27,0.07-0.62,0.12-1.05c0.12-0.97,0.29-2.32,0.51-4.04
							c0.22-1.76,0.51-3.9,0.9-6.39c0.38-2.48,0.79-5.32,1.35-8.44c1.04-6.25,2.46-13.65,4.15-21.85c1.72-8.19,3.75-17.17,6-26.57
							c4.53-18.78,8.95-35.69,12.05-47.96c1.54-6.1,2.79-11.05,3.67-14.53c0.43-1.68,0.77-3,1.01-3.95
							c0.11-0.42,0.21-0.76,0.28-1.02C1422.69,566.65,1422.73,566.53,1422.74,566.54z"/>
					</g>
				</g>
			</g>
		</g>
		<g>
			<g>
				<g>
					<g>
						<path class="st6" d="M1391.57,701.18c-0.01,0-0.04-0.09-0.09-0.28c-0.05-0.22-0.11-0.5-0.19-0.83
							c-0.16-0.79-0.39-1.86-0.67-3.22c-0.57-2.79-1.34-6.85-2.21-11.88c-1.74-10.05-3.8-24.01-5.07-39.54
							c-0.61-7.77-0.96-15.18-1.11-21.93c-0.11-6.75-0.05-12.83,0.16-17.93c0.06-2.55,0.23-4.85,0.34-6.88
							c0.1-2.02,0.25-3.76,0.38-5.18c0.13-1.38,0.23-2.47,0.3-3.27c0.04-0.34,0.07-0.62,0.09-0.85c0.02-0.19,0.04-0.29,0.05-0.29
							c0.01,0,0.01,0.1,0.01,0.29c-0.01,0.23-0.02,0.51-0.03,0.85c-0.04,0.8-0.11,1.9-0.18,3.28c-0.09,1.42-0.2,3.16-0.27,5.19
							c-0.08,2.02-0.21,4.32-0.25,6.87c-0.15,5.09-0.16,11.16-0.02,17.9c0.18,6.73,0.54,14.14,1.16,21.89
							c1.27,15.5,3.26,29.45,4.88,39.51c0.81,5.03,1.51,9.1,2.01,11.91c0.23,1.36,0.42,2.44,0.55,3.24
							c0.05,0.34,0.09,0.62,0.13,0.85C1391.57,701.08,1391.58,701.18,1391.57,701.18z"/>
					</g>
				</g>
			</g>
		</g>
		<g>
			<g>
				<g>
					<g>
						<path class="st6" d="M1392.57,704.11c-0.02,0.01-0.14-0.27-0.35-0.8c-0.23-0.59-0.52-1.36-0.89-2.32
							c-0.19-0.51-0.41-1.07-0.64-1.68c-0.27-0.6-0.56-1.26-0.87-1.95c-0.31-0.7-0.64-1.45-1-2.24c-0.35-0.8-0.81-1.6-1.24-2.46
							c-0.44-0.86-0.9-1.76-1.39-2.69c-0.53-0.91-1.08-1.86-1.65-2.84c-1.09-1.99-2.5-3.97-3.86-6.13
							c-2.91-4.19-6.33-8.65-10.22-13.07c-3.93-4.39-7.95-8.32-11.73-11.75c-1.95-1.65-3.74-3.29-5.54-4.67
							c-0.89-0.71-1.74-1.39-2.57-2.05c-0.85-0.62-1.66-1.22-2.44-1.8c-1.54-1.17-2.99-2.14-4.26-3c-1.26-0.87-2.36-1.6-3.29-2.16
							c-0.87-0.55-1.57-0.99-2.1-1.33c-0.48-0.31-0.72-0.48-0.71-0.5c0.01-0.02,0.28,0.12,0.78,0.39c0.55,0.31,1.27,0.72,2.17,1.23
							c0.95,0.52,2.07,1.22,3.36,2.07c1.3,0.83,2.77,1.78,4.33,2.93c0.79,0.57,1.61,1.16,2.47,1.77c0.84,0.65,1.7,1.33,2.6,2.03
							c1.83,1.37,3.63,3,5.6,4.64c3.82,3.42,7.87,7.35,11.82,11.76c3.91,4.44,7.34,8.93,10.23,13.16c1.36,2.18,2.75,4.18,3.83,6.19
							c0.56,0.99,1.1,1.95,1.63,2.87c0.47,0.95,0.92,1.86,1.36,2.73c0.42,0.87,0.86,1.69,1.2,2.49c0.34,0.8,0.66,1.56,0.96,2.28
							c0.29,0.71,0.57,1.37,0.83,1.98c0.21,0.62,0.41,1.19,0.59,1.71c0.32,0.98,0.58,1.77,0.78,2.37
							C1392.51,703.82,1392.59,704.11,1392.57,704.11z"/>
					</g>
				</g>
			</g>
		</g>
		<g>
			<g>
				<g>
					<g>
						<path class="st6" d="M1449.86,634.79c0,0.1-1.65,0.1-4.29,0.25c-2.64,0.14-6.28,0.49-10.25,1.24
							c-3.96,0.76-7.48,1.77-9.99,2.6c-2.51,0.83-4.04,1.43-4.08,1.34c-0.02-0.04,0.35-0.24,1.02-0.55
							c0.67-0.32,1.67-0.74,2.91-1.21c2.49-0.95,6.02-2.04,10.02-2.81c4-0.76,7.69-1.03,10.35-1.06c1.33-0.02,2.41,0.01,3.15,0.06
							C1449.45,634.69,1449.86,634.74,1449.86,634.79z"/>
					</g>
				</g>
			</g>
		</g>
		<g>
			<g>
				<g>
					<g>
						<path class="st6" d="M1460.1,684.8c-0.19,0.1-1.73-4.32-5.59-8.43c-3.81-4.15-8.11-6.01-7.99-6.2
							c0.03-0.07,1.13,0.3,2.76,1.22c1.63,0.91,3.75,2.44,5.7,4.54c1.95,2.1,3.32,4.33,4.11,6.02
							C1459.88,683.66,1460.17,684.78,1460.1,684.8z"/>
					</g>
				</g>
			</g>
		</g>
		<g>
			<g>
				<g>
					<g>
						<path class="st6" d="M1425.18,585.29c0.13,0.14-2.37,2.62-5.1,5.97c-2.74,3.35-4.67,6.29-4.83,6.19
							c-0.14-0.08,1.56-3.21,4.33-6.6C1422.35,587.46,1425.07,585.17,1425.18,585.29z"/>
					</g>
				</g>
			</g>
		</g>
		<g>
			<g>
				<g>
					<g>
						<path class="st6" d="M1416.98,571.13c0.17-0.03,0.73,2.37,1.24,5.36c0.51,2.99,0.78,5.44,0.61,5.47
							c-0.17,0.03-0.73-2.37-1.24-5.36C1417.08,573.61,1416.8,571.16,1416.98,571.13z"/>
					</g>
				</g>
			</g>
		</g>
		<g>
			<g>
				<g>
					<g>
						<path class="st6" d="M1391.58,615.58c0.16,0.08-1.62,3.83-3.97,8.36c-2.35,4.54-4.39,8.15-4.54,8.07
							c-0.16-0.08,1.62-3.82,3.97-8.36C1389.39,619.11,1391.43,615.49,1391.58,615.58z"/>
					</g>
				</g>
			</g>
		</g>
		<g>
			<g>
				<g>
					<g>
						<path class="st6" d="M1376.47,600.49c0.16-0.08,1.67,2.63,3.37,6.05c1.7,3.42,2.95,6.26,2.8,6.33
							c-0.16,0.08-1.67-2.63-3.37-6.05C1377.56,603.4,1376.31,600.57,1376.47,600.49z"/>
					</g>
				</g>
			</g>
		</g>
		<g>
			<g>
				<g>
					<g>
						<path class="st6" d="M1354.25,652.09c-0.04,0.18-2.74-0.34-6.1-0.57c-3.36-0.25-6.1-0.11-6.12-0.3
							c-0.02-0.16,2.74-0.59,6.16-0.34C1351.62,651.12,1354.3,651.93,1354.25,652.09z"/>
					</g>
				</g>
			</g>
		</g>
	</g>
	<g>
		<g>
			<g>
				<g>
					<path class="st6" d="M1369.43,697.72l7.56,39.74c0.5,2.63,2.8,4.53,5.47,4.53h22.33c2.73,0,5.05-1.97,5.5-4.66l6.57-39.61
						H1369.43z"/>
				</g>
			</g>
		</g>
		<g>
			<g>
				<g>
					<polygon class="st8" points="1371.88,710.64 1414.58,710.64 1416.85,697.72 1369.43,697.72 					"/>
				</g>
			</g>
		</g>
		<g>
			<g>
				<g>
					<polygon class="st3" points="1371.88,710.64 1372.78,715.35 1413.92,715.35 1414.58,710.64 					"/>
				</g>
			</g>
		</g>
	</g>
</g>
<g>
	<g>
		<g>
			<g>
				<g>
					<g>
						<g>
							<g>
								<g>
									<g>
										<g>
											<path class="st7" d="M448.75,740.41l2.57-11.01l21.43,0.53l-1.79,15.65l-1.36,0.1c-6.07,0.41-30.88,1.66-34.95,0.48
												C430.1,744.85,448.75,740.41,448.75,740.41z"/>
										</g>
									</g>
								</g>
							</g>
						</g>
					</g>
				</g>
				<g class="st9">
					<g>
						<g>
							<g>
								<g>
									<g>
										<g>
											<path d="M462.98,745.51c0.29-1.84,1.29-3.56,2.75-4.73c1.46-1.16,3.26-1.79,5.12-1.66l0.08,6.15L462.98,745.51z"/>
										</g>
									</g>
								</g>
							</g>
						</g>
					</g>
				</g>
			</g>
			<g>
				<g>
					<g class="st9">
						<g>
							<g>
								<g>
									<g>
										<path d="M439.64,742.91c0,0-6.53,1.97-5.7,3.04c0.83,1.07,25.95,0.75,37.02-0.36l-0.04-0.49l-29.3,0.62
											C441.62,745.71,440.92,742.94,439.64,742.91z"/>
									</g>
								</g>
							</g>
						</g>
					</g>
				</g>
			</g>
			<g>
				<g>
					<g>
						<g>
							<g>
								<g>
									<g>
										<g>
											<path class="st6" d="M471.27,745.07c0,0.01-0.13,0.02-0.38,0.05c-0.33,0.02-0.68,0.05-1.09,0.08
												c-1.09,0.06-2.42,0.14-4,0.22c-3.38,0.16-8.04,0.33-13.2,0.4c-5.16,0.07-9.83,0.03-13.21-0.04
												c-1.58-0.05-2.91-0.08-4-0.12c-0.4-0.02-0.76-0.03-1.09-0.05c-0.25-0.01-0.38-0.03-0.38-0.04c0-0.01,0.13-0.02,0.38-0.02
												c0.33,0,0.68,0,1.09,0c1.09,0.01,2.42,0.02,4,0.03c3.38,0.03,8.05,0.03,13.2-0.03c5.15-0.07,9.82-0.21,13.2-0.32
												c1.58-0.05,2.91-0.1,4-0.14c0.4-0.01,0.76-0.02,1.09-0.03C471.13,745.06,471.27,745.07,471.27,745.07z"/>
										</g>
									</g>
								</g>
							</g>
						</g>
					</g>
				</g>
			</g>
			<g>
				<g>
					<g>
						<g>
							<g>
								<g>
									<g>
										<g>
											<path class="st6" d="M441.63,746.06c-0.08,0.01-0.16-0.94-0.77-1.9c-0.6-0.97-1.43-1.45-1.38-1.51
												c0.02-0.07,0.96,0.34,1.61,1.37C441.74,745.04,441.7,746.07,441.63,746.06z"/>
										</g>
									</g>
								</g>
							</g>
						</g>
					</g>
				</g>
			</g>
			<g>
				<g>
					<g>
						<g>
							<g>
								<g>
									<g>
										<g>
											<path class="st6" d="M448.08,742.68c-0.06,0.04-0.38-0.33-0.7-0.84c-0.33-0.5-0.54-0.94-0.48-0.98
												c0.06-0.04,0.38,0.33,0.7,0.84C447.93,742.2,448.14,742.64,448.08,742.68z"/>
										</g>
									</g>
								</g>
							</g>
						</g>
					</g>
				</g>
			</g>
			<g>
				<g>
					<g>
						<g>
							<g>
								<g>
									<g>
										<g>
											<path class="st6" d="M449.85,741.72c-0.05,0.06-0.4-0.17-0.78-0.51c-0.38-0.34-0.65-0.65-0.61-0.71
												c0.05-0.06,0.4,0.17,0.78,0.51C449.63,741.34,449.9,741.66,449.85,741.72z"/>
										</g>
									</g>
								</g>
							</g>
						</g>
					</g>
				</g>
			</g>
			<g>
				<g>
					<g>
						<g>
							<g>
								<g>
									<g>
										<g>
											<path class="st6" d="M450.95,739.62c0,0.07-0.51,0.15-1.15,0.16c-0.63,0.02-1.15-0.03-1.15-0.11
												c0-0.07,0.51-0.15,1.15-0.16C450.43,739.5,450.95,739.55,450.95,739.62z"/>
										</g>
									</g>
								</g>
							</g>
						</g>
					</g>
				</g>
			</g>
			<g>
				<g>
					<g>
						<g>
							<g>
								<g>
									<g>
										<g>
											<path class="st6" d="M451.32,738.15c0.03,0.07-0.53,0.33-1.28,0.39c-0.75,0.07-1.34-0.09-1.33-0.16
												c0.01-0.08,0.59-0.04,1.3-0.11C450.73,738.22,451.29,738.08,451.32,738.15z"/>
										</g>
									</g>
								</g>
							</g>
						</g>
					</g>
				</g>
			</g>
			<g>
				<g>
					<g>
						<g>
							<g>
								<g>
									<g>
										<g>
											<path class="st6" d="M447.31,740.77c0,0.03-0.54,0.1-1.41,0.01c-0.44-0.05-0.95-0.14-1.51-0.31
												c-0.28-0.09-0.57-0.16-0.87-0.34c-0.14-0.09-0.3-0.22-0.36-0.43c-0.06-0.21,0.05-0.45,0.21-0.57
												c1.34-0.72,2.71,0.03,3.22,0.72c0.28,0.35,0.41,0.7,0.47,0.94c0.06,0.24,0.06,0.38,0.04,0.38
												c-0.05,0.02-0.1-0.56-0.66-1.2c-0.27-0.32-0.69-0.62-1.22-0.77c-0.5-0.14-1.21-0.17-1.68,0.14
												c-0.22,0.17-0.13,0.43,0.12,0.58c0.23,0.15,0.54,0.23,0.8,0.33c0.54,0.18,1.04,0.29,1.46,0.36
												C446.77,740.73,447.31,740.73,447.31,740.77z"/>
										</g>
									</g>
								</g>
							</g>
						</g>
					</g>
				</g>
			</g>
			<g>
				<g>
					<g>
						<g>
							<g>
								<g>
									<g>
										<g>
											<path class="st6" d="M446.95,740.85c-0.02,0.02-0.23-0.34-0.18-0.98c0.03-0.31,0.14-0.68,0.37-1.04
												c0.25-0.32,0.56-0.75,1.17-0.74c0.33,0.04,0.49,0.41,0.44,0.65c-0.02,0.25-0.13,0.46-0.23,0.63
												c-0.21,0.36-0.44,0.64-0.66,0.86c-0.44,0.44-0.79,0.61-0.8,0.58c-0.03-0.03,0.28-0.26,0.66-0.71
												c0.19-0.23,0.4-0.51,0.58-0.86c0.19-0.3,0.32-0.84-0.04-0.9c-0.35-0.03-0.71,0.33-0.92,0.61
												c-0.22,0.31-0.34,0.64-0.39,0.92C446.86,740.47,446.99,740.83,446.95,740.85z"/>
										</g>
									</g>
								</g>
							</g>
						</g>
					</g>
				</g>
			</g>
			<g>
				<g>
					<g>
						<g>
							<g>
								<g>
									<g>
										<g>
											<path class="st6" d="M470.74,739.06c0,0.05-0.63-0.05-1.62,0.08c-0.98,0.12-2.35,0.54-3.53,1.51
												c-1.18,0.97-1.86,2.22-2.18,3.16c-0.32,0.95-0.35,1.58-0.4,1.58c-0.02,0-0.03-0.16-0.01-0.44
												c0.02-0.28,0.08-0.7,0.22-1.19c0.28-0.98,0.96-2.3,2.19-3.31c1.23-1,2.66-1.41,3.68-1.49c0.51-0.04,0.93-0.02,1.21,0.02
												C470.59,739,470.74,739.04,470.74,739.06z"/>
										</g>
									</g>
								</g>
							</g>
						</g>
					</g>
				</g>
			</g>
			<g>
				<g>
					<g>
						<g>
							<g>
								<g>
									<g>
										<g>
											<path class="st6" d="M468.34,729.93c0.07,0,0.18,2.02,0.25,4.52c0.06,2.5,0.06,4.52-0.02,4.52
												c-0.07,0-0.18-2.02-0.25-4.52C468.26,731.96,468.27,729.93,468.34,729.93z"/>
										</g>
									</g>
								</g>
							</g>
						</g>
					</g>
				</g>
			</g>
			<g>
				<g>
					<g>
						<g>
							<g>
								<g>
									<g>
										<g>
											<path class="st6" d="M460.19,743.4c0.01,0.07-1.42,0.32-3.21,0.36c-1.79,0.04-3.23-0.15-3.22-0.22
												c0.01-0.08,1.44-0.01,3.22-0.05C458.74,743.45,460.18,743.32,460.19,743.4z"/>
										</g>
									</g>
								</g>
							</g>
						</g>
					</g>
				</g>
			</g>
			<g>
				<g>
					<g>
						<g>
							<g>
								<g>
									<g>
										<g>
											<path class="st6" d="M464.5,743.34c0.05,0.05-0.11,0.31-0.26,0.64c-0.15,0.33-0.22,0.62-0.3,0.62
												c-0.07,0-0.12-0.35,0.05-0.73C464.16,743.48,464.45,743.28,464.5,743.34z"/>
										</g>
									</g>
								</g>
							</g>
						</g>
					</g>
				</g>
			</g>
			<g>
				<g>
					<g>
						<g>
							<g>
								<g>
									<g>
										<g>
											<path class="st6" d="M466.1,741.29c0.05,0.05-0.09,0.28-0.31,0.52c-0.22,0.23-0.45,0.38-0.5,0.33
												c-0.05-0.05,0.09-0.28,0.31-0.52C465.82,741.39,466.04,741.24,466.1,741.29z"/>
										</g>
									</g>
								</g>
							</g>
						</g>
					</g>
				</g>
			</g>
			<g>
				<g>
					<g>
						<g>
							<g>
								<g>
									<g>
										<g>
											<path class="st6" d="M468.41,740.34c-0.01,0.07-0.31,0.08-0.63,0.19c-0.32,0.11-0.55,0.29-0.61,0.24
												c-0.06-0.04,0.12-0.36,0.52-0.49C468.09,740.14,468.43,740.27,468.41,740.34z"/>
										</g>
									</g>
								</g>
							</g>
						</g>
					</g>
				</g>
			</g>
			<g>
				<g>
					<g>
						<g>
							<g>
								<g>
									<g>
										<g>
											<path class="st6" d="M470.06,739.88c0.03,0.07-0.1,0.18-0.28,0.26c-0.18,0.07-0.35,0.08-0.38,0.01
												c-0.03-0.07,0.1-0.18,0.28-0.26C469.86,739.82,470.03,739.81,470.06,739.88z"/>
										</g>
									</g>
								</g>
							</g>
						</g>
					</g>
				</g>
			</g>
		</g>
	</g>
	<g>
		<g>
			<g>
				<g>
					<g>
						<g>
							<g>
								<g>
									<g>
										<g>
											<path class="st7" d="M536.43,740.46l0.07-11.75l-22-0.27l-0.28,17.18l1.36,0.1c6.07,0.41,30.88,1.66,34.95,0.48
												C555.08,744.9,536.43,740.46,536.43,740.46z"/>
										</g>
									</g>
								</g>
							</g>
						</g>
					</g>
				</g>
				<g class="st9">
					<g>
						<g>
							<g>
								<g>
									<g>
										<g>
											<path d="M522.2,745.56c-0.29-1.84-1.29-3.56-2.75-4.73c-1.46-1.16-3.26-1.79-5.12-1.66l-0.08,6.15L522.2,745.56z"/>
										</g>
									</g>
								</g>
							</g>
						</g>
					</g>
				</g>
			</g>
			<g>
				<g>
					<g class="st9">
						<g>
							<g>
								<g>
									<g>
										<path d="M545.54,742.96c0,0,6.53,1.97,5.7,3.04c-0.83,1.07-25.95,0.75-37.02-0.36l0.04-0.49l29.3,0.62
											C543.56,745.77,544.26,743,545.54,742.96z"/>
									</g>
								</g>
							</g>
						</g>
					</g>
				</g>
			</g>
			<g>
				<g>
					<g>
						<g>
							<g>
								<g>
									<g>
										<g>
											<path class="st6" d="M513.91,745.13c0,0.01,0.13,0.02,0.38,0.05c0.33,0.02,0.68,0.05,1.09,0.08
												c1.09,0.06,2.42,0.14,4,0.22c3.38,0.16,8.04,0.33,13.2,0.4c5.16,0.07,9.83,0.03,13.21-0.04c1.58-0.05,2.91-0.08,4-0.12
												c0.4-0.02,0.76-0.03,1.09-0.05c0.25-0.01,0.38-0.03,0.38-0.04c0-0.01-0.13-0.02-0.38-0.02c-0.33,0-0.68,0-1.09,0
												c-1.09,0.01-2.42,0.02-4,0.03c-3.38,0.03-8.05,0.03-13.2-0.03c-5.15-0.07-9.82-0.21-13.2-0.32
												c-1.58-0.05-2.91-0.1-4-0.14c-0.4-0.01-0.76-0.02-1.09-0.03C514.04,745.12,513.91,745.12,513.91,745.13z"/>
										</g>
									</g>
								</g>
							</g>
						</g>
					</g>
				</g>
			</g>
			<g>
				<g>
					<g>
						<g>
							<g>
								<g>
									<g>
										<g>
											<path class="st6" d="M543.55,746.11c0.08,0.01,0.16-0.94,0.77-1.9c0.6-0.97,1.43-1.45,1.38-1.51
												c-0.02-0.07-0.96,0.34-1.61,1.37C543.44,745.09,543.48,746.12,543.55,746.11z"/>
										</g>
									</g>
								</g>
							</g>
						</g>
					</g>
				</g>
			</g>
			<g>
				<g>
					<g>
						<g>
							<g>
								<g>
									<g>
										<g>
											<path class="st6" d="M537.1,742.73c0.06,0.04,0.38-0.33,0.7-0.84c0.33-0.5,0.54-0.94,0.48-0.98
												c-0.06-0.04-0.38,0.33-0.7,0.84C537.25,742.25,537.03,742.69,537.1,742.73z"/>
										</g>
									</g>
								</g>
							</g>
						</g>
					</g>
				</g>
			</g>
			<g>
				<g>
					<g>
						<g>
							<g>
								<g>
									<g>
										<g>
											<path class="st6" d="M535.33,741.77c0.05,0.06,0.4-0.17,0.78-0.51c0.38-0.34,0.65-0.65,0.61-0.71
												c-0.05-0.06-0.4,0.17-0.78,0.51C535.55,741.4,535.28,741.71,535.33,741.77z"/>
										</g>
									</g>
								</g>
							</g>
						</g>
					</g>
				</g>
			</g>
			<g>
				<g>
					<g>
						<g>
							<g>
								<g>
									<g>
										<g>
											<path class="st6" d="M534.23,739.68c0,0.07,0.51,0.15,1.15,0.16c0.63,0.02,1.15-0.03,1.15-0.11
												c0-0.07-0.51-0.15-1.15-0.16C534.74,739.56,534.23,739.6,534.23,739.68z"/>
										</g>
									</g>
								</g>
							</g>
						</g>
					</g>
				</g>
			</g>
			<g>
				<g>
					<g>
						<g>
							<g>
								<g>
									<g>
										<g>
											<path class="st6" d="M533.86,738.21c-0.03,0.07,0.53,0.33,1.28,0.39c0.75,0.07,1.34-0.09,1.33-0.16
												c-0.01-0.08-0.59-0.04-1.3-0.11C534.45,738.27,533.88,738.13,533.86,738.21z"/>
										</g>
									</g>
								</g>
							</g>
						</g>
					</g>
				</g>
			</g>
			<g>
				<g>
					<g>
						<g>
							<g>
								<g>
									<g>
										<g>
											<path class="st6" d="M537.87,740.82c0,0.03,0.54,0.1,1.41,0.01c0.44-0.05,0.95-0.14,1.51-0.31
												c0.28-0.09,0.57-0.16,0.87-0.34c0.14-0.09,0.3-0.22,0.36-0.43c0.06-0.21-0.05-0.45-0.21-0.57
												c-1.34-0.72-2.71,0.03-3.22,0.72c-0.28,0.35-0.41,0.7-0.47,0.94c-0.06,0.24-0.06,0.38-0.04,0.38
												c0.05,0.02,0.1-0.56,0.66-1.2c0.27-0.32,0.69-0.62,1.22-0.77c0.5-0.14,1.21-0.17,1.68,0.14
												c0.22,0.17,0.13,0.43-0.12,0.58c-0.23,0.15-0.54,0.23-0.8,0.33c-0.54,0.18-1.04,0.29-1.46,0.36
												C538.41,740.78,537.87,740.78,537.87,740.82z"/>
										</g>
									</g>
								</g>
							</g>
						</g>
					</g>
				</g>
			</g>
			<g>
				<g>
					<g>
						<g>
							<g>
								<g>
									<g>
										<g>
											<path class="st6" d="M538.23,740.9c0.02,0.02,0.23-0.34,0.18-0.98c-0.03-0.31-0.14-0.68-0.37-1.04
												c-0.25-0.32-0.56-0.75-1.17-0.74c-0.33,0.04-0.49,0.41-0.44,0.65c0.02,0.25,0.13,0.46,0.23,0.63
												c0.21,0.36,0.44,0.64,0.66,0.86c0.44,0.44,0.79,0.61,0.8,0.58c0.02-0.03-0.28-0.26-0.66-0.71
												c-0.19-0.23-0.4-0.51-0.58-0.86c-0.19-0.3-0.32-0.84,0.04-0.9c0.35-0.03,0.71,0.33,0.92,0.61
												c0.22,0.31,0.34,0.64,0.39,0.92C538.32,740.52,538.19,740.89,538.23,740.9z"/>
										</g>
									</g>
								</g>
							</g>
						</g>
					</g>
				</g>
			</g>
			<g>
				<g>
					<g>
						<g>
							<g>
								<g>
									<g>
										<g>
											<path class="st6" d="M514.44,739.11c0,0.05,0.63-0.05,1.62,0.08c0.98,0.12,2.35,0.54,3.53,1.51
												c1.18,0.97,1.86,2.22,2.18,3.16c0.32,0.95,0.35,1.58,0.4,1.58c0.02,0,0.03-0.16,0.01-0.44c-0.02-0.28-0.08-0.7-0.22-1.19
												c-0.28-0.98-0.96-2.3-2.19-3.31c-1.23-1-2.66-1.41-3.68-1.49c-0.51-0.04-0.93-0.02-1.21,0.02
												C514.59,739.06,514.44,739.1,514.44,739.11z"/>
										</g>
									</g>
								</g>
							</g>
						</g>
					</g>
				</g>
			</g>
			<g>
				<g>
					<g>
						<g>
							<g>
								<g>
									<g>
										<g>
											<path class="st6" d="M516.83,729.99c-0.07,0-0.18,2.02-0.25,4.52c-0.06,2.5-0.06,4.52,0.02,4.52
												c0.07,0,0.18-2.02,0.25-4.52C516.92,732.01,516.91,729.99,516.83,729.99z"/>
										</g>
									</g>
								</g>
							</g>
						</g>
					</g>
				</g>
			</g>
			<g>
				<g>
					<g>
						<g>
							<g>
								<g>
									<g>
										<g>
											<path class="st6" d="M524.99,743.45c-0.01,0.07,1.42,0.32,3.21,0.36c1.79,0.04,3.23-0.15,3.22-0.22
												c-0.01-0.08-1.44-0.01-3.22-0.05C526.44,743.51,525,743.37,524.99,743.45z"/>
										</g>
									</g>
								</g>
							</g>
						</g>
					</g>
				</g>
			</g>
			<g>
				<g>
					<g>
						<g>
							<g>
								<g>
									<g>
										<g>
											<path class="st6" d="M520.68,743.39c-0.05,0.05,0.11,0.31,0.26,0.64c0.15,0.33,0.22,0.62,0.29,0.62
												c0.07,0,0.12-0.35-0.05-0.73C521.01,743.54,520.73,743.34,520.68,743.39z"/>
										</g>
									</g>
								</g>
							</g>
						</g>
					</g>
				</g>
			</g>
			<g>
				<g>
					<g>
						<g>
							<g>
								<g>
									<g>
										<g>
											<path class="st6" d="M519.08,741.35c-0.05,0.05,0.09,0.28,0.31,0.52c0.22,0.23,0.45,0.38,0.5,0.33
												c0.05-0.05-0.09-0.28-0.31-0.52C519.36,741.44,519.13,741.29,519.08,741.35z"/>
										</g>
									</g>
								</g>
							</g>
						</g>
					</g>
				</g>
			</g>
			<g>
				<g>
					<g>
						<g>
							<g>
								<g>
									<g>
										<g>
											<path class="st6" d="M516.77,740.39c0.01,0.07,0.31,0.08,0.63,0.19c0.32,0.11,0.55,0.29,0.61,0.24
												c0.06-0.04-0.12-0.36-0.52-0.49C517.08,740.19,516.75,740.32,516.77,740.39z"/>
										</g>
									</g>
								</g>
							</g>
						</g>
					</g>
				</g>
			</g>
			<g>
				<g>
					<g>
						<g>
							<g>
								<g>
									<g>
										<g>
											<path class="st6" d="M515.12,739.93c-0.03,0.07,0.1,0.18,0.28,0.26c0.18,0.07,0.35,0.08,0.38,0.01
												c0.03-0.07-0.1-0.18-0.28-0.26C515.31,739.87,515.14,739.87,515.12,739.93z"/>
										</g>
									</g>
								</g>
							</g>
						</g>
					</g>
				</g>
			</g>
		</g>
	</g>
	<g>
		<g>
			<g>
				<g>
					<g>
						<g>
							<g>
								<polygon class="st6" points="548.95,526.02 538.94,737.69 511.46,738.34 513.62,554.81 472.51,738.69 449.12,737.63 
									485.8,526.45 								"/>
							</g>
						</g>
					</g>
				</g>
			</g>
		</g>
		<g>
			<g>
				<g>
					<g>
						<g>
							<path class="st8" d="M520.36,528.88c0.08,0.01-0.02,1.34-0.25,3.48c-0.23,2.14-0.58,5.09-1,8.35
								c-0.23,1.62-0.36,3.19-0.77,4.6c-0.39,1.41-1.15,2.59-2.02,3.29c-0.85,0.73-1.73,1.04-2.33,1.15
								c-0.61,0.11-0.95,0.05-0.95,0.02c-0.04-0.11,1.45-0.03,3.01-1.47c0.78-0.69,1.43-1.78,1.77-3.13
								c0.36-1.34,0.48-2.91,0.7-4.53c0.42-3.26,0.84-6.2,1.17-8.33C520.04,530.18,520.28,528.87,520.36,528.88z"/>
						</g>
					</g>
				</g>
			</g>
		</g>
		<g>
			<g>
				<g>
					<g>
						<g>
							<path class="st8" d="M513.6,530.14c0.07,0.05-0.18,0.4-0.01,0.95c0.08,0.26,0.28,0.56,0.57,0.68
								c0.29,0.13,0.68,0.04,0.97-0.23c0.29-0.28,0.4-0.66,0.28-0.95c-0.11-0.3-0.39-0.51-0.65-0.61c-0.54-0.2-0.9,0.03-0.95-0.05
								c-0.07-0.03,0.28-0.49,1.05-0.35c0.35,0.08,0.8,0.3,1.03,0.8c0.24,0.5,0.06,1.18-0.38,1.57c-0.42,0.41-1.1,0.56-1.59,0.29
								c-0.49-0.26-0.69-0.72-0.74-1.07C513.09,530.4,513.57,530.07,513.6,530.14z"/>
						</g>
					</g>
				</g>
			</g>
		</g>
		<g>
			<g>
				<g>
					<g>
						<g>
							<path class="st8" d="M496.16,533.79c-0.14,0.05-0.67-1.27-0.54-2.98c0.11-1.71,0.82-2.95,0.95-2.88
								c0.16,0.06-0.27,1.32-0.37,2.92C496.07,532.44,496.32,533.74,496.16,533.79z"/>
						</g>
					</g>
				</g>
			</g>
		</g>
		<g>
			<g>
				<g>
					<g>
						<g>
							<path class="st8" d="M500.08,533.39c-0.14,0.05-0.65-1.31-0.58-3.07c0.05-1.76,0.65-3.08,0.78-3.03
								c0.16,0.05-0.16,1.38-0.21,3.05C500.01,532,500.24,533.35,500.08,533.39z"/>
						</g>
					</g>
				</g>
			</g>
		</g>
		<g>
			<g>
				<g>
					<g>
						<g>
							<path class="st8" d="M533.88,533c-0.16-0.04,0.05-1.44,0.07-3.16c0.03-1.73-0.14-3.13,0.02-3.17
								c0.15-0.04,0.58,1.37,0.55,3.17C534.51,531.65,534.03,533.04,533.88,533z"/>
						</g>
					</g>
				</g>
			</g>
		</g>
		<g>
			<g>
				<g>
					<g>
						<g>
							<path class="st8" d="M538.14,532.61c-0.16-0.06,0.3-1.45,0.35-3.22c0.07-1.77-0.3-3.19-0.14-3.24
								c0.14-0.06,0.78,1.37,0.71,3.26C539.01,531.3,538.27,532.68,538.14,532.61z"/>
						</g>
					</g>
				</g>
			</g>
		</g>
	</g>
	<g>
		<g>
			<g>
				<polygon class="st7" points="501.8,430.42 501.8,430.43 501.81,430.43 				"/>
			</g>
		</g>
	</g>
	<g>
		<g>
			<g>
				<g>
					<path class="st6" d="M531.86,393.3c1.13-1.32,2-3.69,1.32-5.29c1.33-0.7,1.46-1.88,1.45-3.38c0-1.5-0.59-2.95-1.3-4.27
						c-1.14-2.14-2.69-4.16-4.83-5.29c-2.14-1.14-4.97-1.21-6.86,0.3c-2.74-3.57-8.72-3.99-11.93-0.83
						c-0.58,0.57-1.09,1.25-1.81,1.65c-1.19,0.66-2.65,0.41-4.01,0.54c-2.2,0.2-4.26,1.51-5.39,3.4c-1.13,1.9-1.29,4.33-0.43,6.36
						c-1.96,1.2-3.01,3.53-3.23,5.83c-0.22,2.29,0.28,4.58,0.78,6.83c0.62,2.77,1.32,5.68,3.28,7.73c1.34,1.4,3.21,2.28,5.14,2.43
						c2.77,0.21,5.6-1.12,7.2-3.39"/>
				</g>
			</g>
			<g>
				<g>
					<g>
						<g>
							<g>
								<g>
									<g>
										<g>
											<g>
												<g>
													<g>
														<g>
															<path class="st10" d="M502.59,440.49l22.22-1.02c0.13-2.36-1.08-16.95-1.08-16.95s8.4-1.31,8.5-9.7
																c0.1-8.4-1.35-27.68-1.35-27.68l0,0c-9.72-4.18-20.94-2.77-29.33,3.69l-1.24,0.96L502.59,440.49z"/>
														</g>
													</g>
												</g>
											</g>
										</g>
									</g>
									<g>
										<g>
											<g>
												<g>
													<g>
														<g>
															<path class="st11" d="M523.75,422.4c0,0-5.31,0.43-10.95-3.11c0,0,2.59,6.04,10.97,5.29L523.75,422.4z"/>
														</g>
													</g>
												</g>
											</g>
										</g>
									</g>
								</g>
							</g>
						</g>
						<g>
							<g>
								<g>
									<g>
										<g>
											<g>
												<g>
													<path class="st10" d="M501.35,398.48c-0.14-0.06-5.77-1.71-5.59,4.04c0.18,5.74,5.91,4.37,5.91,4.21
														C501.68,406.56,501.35,398.48,501.35,398.48z"/>
												</g>
											</g>
										</g>
									</g>
								</g>
							</g>
							<g>
								<g>
									<g>
										<g>
											<g>
												<g>
													<g>
														<path class="st11" d="M499.85,404.6c-0.03-0.02-0.1,0.07-0.26,0.16c-0.16,0.08-0.44,0.14-0.75,0.04
															c-0.61-0.2-1.16-1.15-1.22-2.18c-0.03-0.52,0.06-1.02,0.23-1.44c0.16-0.43,0.42-0.73,0.73-0.79
															c0.3-0.08,0.52,0.1,0.6,0.26c0.08,0.16,0.05,0.27,0.08,0.28c0.02,0.01,0.12-0.1,0.07-0.34
															c-0.03-0.11-0.1-0.25-0.24-0.35c-0.14-0.11-0.35-0.16-0.56-0.13c-0.44,0.04-0.83,0.46-1.02,0.92
															c-0.21,0.46-0.33,1.03-0.3,1.61c0.07,1.16,0.7,2.22,1.54,2.43c0.41,0.09,0.74-0.04,0.91-0.18
															C499.85,404.74,499.87,404.61,499.85,404.6z"/>
													</g>
												</g>
											</g>
										</g>
									</g>
								</g>
							</g>
						</g>
						<g>
							<g>
								<g>
									<g>
										<g>
											<g>
												<g>
													<g>
														<g>
															<g>
																<g>
																	<g>
																		<path class="st6" d="M529.04,398.3c0.02,0.63-0.5,1.17-1.16,1.21c-0.66,0.04-1.21-0.45-1.24-1.08
																			c-0.02-0.63,0.5-1.18,1.16-1.21C528.46,397.18,529.01,397.67,529.04,398.3z"/>
																	</g>
																</g>
															</g>
														</g>
													</g>
												</g>
												<g>
													<g>
														<g>
															<g>
																<g>
																	<g>
																		<g>
																			<path class="st6" d="M529.3,396.95c-0.15,0.16-1.06-0.52-2.35-0.51c-1.29-0.02-2.24,0.65-2.38,0.49
																				c-0.07-0.07,0.08-0.35,0.5-0.65c0.41-0.3,1.1-0.59,1.9-0.59c0.8,0,1.48,0.3,1.87,0.6
																				C529.24,396.6,529.37,396.88,529.3,396.95z"/>
																		</g>
																	</g>
																</g>
															</g>
														</g>
													</g>
												</g>
											</g>
											<g>
												<g>
													<g>
														<g>
															<g>
																<g>
																	<g>
																		<path class="st6" d="M516.4,398.6c0.02,0.63-0.5,1.17-1.16,1.21c-0.66,0.04-1.21-0.45-1.24-1.08
																			c-0.02-0.63,0.5-1.18,1.16-1.21C515.82,397.48,516.37,397.97,516.4,398.6z"/>
																	</g>
																</g>
															</g>
														</g>
													</g>
												</g>
												<g>
													<g>
														<g>
															<g>
																<g>
																	<g>
																		<g>
																			<path class="st6" d="M516.61,397.19c-0.15,0.16-1.06-0.52-2.35-0.51c-1.29-0.01-2.24,0.65-2.38,0.49
																				c-0.07-0.07,0.08-0.35,0.5-0.65c0.41-0.3,1.1-0.59,1.9-0.59c0.8,0,1.48,0.3,1.87,0.6
																				C516.55,396.84,516.68,397.12,516.61,397.19z"/>
																		</g>
																	</g>
																</g>
															</g>
														</g>
													</g>
												</g>
											</g>
											<g>
												<g>
													<g>
														<g>
															<g>
																<g>
																	<g>
																		<path class="st6" d="M521.3,406.76c-0.01-0.07,0.8-0.21,2.1-0.38c0.33-0.03,0.64-0.1,0.7-0.32
																			c0.08-0.24-0.06-0.59-0.22-0.98c-0.31-0.8-0.63-1.63-0.97-2.51c-1.35-3.57-2.33-6.51-2.19-6.56
																			c0.14-0.05,1.36,2.8,2.71,6.37c0.33,0.88,0.64,1.72,0.93,2.52c0.12,0.37,0.34,0.8,0.17,1.29
																			c-0.09,0.25-0.33,0.43-0.54,0.48c-0.21,0.06-0.4,0.07-0.56,0.08C522.11,406.83,521.3,406.84,521.3,406.76z"/>
																	</g>
																</g>
															</g>
														</g>
													</g>
												</g>
											</g>
											<g>
												<g>
													<g>
														<g>
															<g>
																<g>
																	<g>
																		<path class="st6" d="M517.5,407.65c0.21-0.01,0.21,1.39,1.41,2.38c1.2,1,2.69,0.84,2.7,1.04
																			c0.02,0.09-0.33,0.27-0.96,0.29c-0.62,0.02-1.52-0.18-2.25-0.79c-0.73-0.61-1.05-1.42-1.09-2
																			C517.25,407.99,517.4,407.65,517.5,407.65z"/>
																	</g>
																</g>
															</g>
														</g>
													</g>
												</g>
											</g>
										</g>
									</g>
								</g>
								<g>
									<g>
										<g>
											<g>
												<g>
													<g>
														<path class="st6" d="M516.94,392.13c-0.13,0.35-1.42,0.18-2.93,0.37c-1.52,0.15-2.74,0.6-2.94,0.28
															c-0.09-0.15,0.12-0.48,0.62-0.82c0.49-0.34,1.27-0.66,2.18-0.76c0.91-0.1,1.74,0.04,2.29,0.27
															C516.72,391.69,517,391.97,516.94,392.13z"/>
													</g>
												</g>
											</g>
										</g>
									</g>
								</g>
								<g>
									<g>
										<g>
											<g>
												<g>
													<g>
														<path class="st6" d="M528.82,393.21c-0.23,0.29-1.12-0.01-2.19-0.03c-1.07-0.05-1.97,0.2-2.18-0.11
															c-0.09-0.15,0.05-0.44,0.45-0.72c0.39-0.28,1.04-0.5,1.78-0.48c0.73,0.02,1.37,0.29,1.74,0.59
															C528.8,392.77,528.92,393.07,528.82,393.21z"/>
													</g>
												</g>
											</g>
										</g>
									</g>
								</g>
							</g>
						</g>
					</g>
				</g>
				<g>
					<g>
						<g>
							<path class="st6" d="M499.86,389.4c0.11,2.45-0.43,5.17,0,7.58c0.06,0.36,1.01,1.33,1.09,1.69c0.49,2.13,1.38,3.04,2.64,0.84
								c0.49-0.84,0.8-3.19,0.99-4.14c0.51-2.59,1.02-5.17,1.53-7.76c2,0.93,4.18,1.65,6.38,1.51c2.21-0.13,4.45-1.25,5.46-3.22
								c1.05,1.74,2.91,2.96,4.92,3.22c2.01,0.26,4.13-0.43,5.59-1.84c0.75,1.2,2.53,1.53,3.74,0.8c1.21-0.73,1.75-2.34,1.36-3.71
								c-0.58-2.05-2.77-3.16-4.82-3.76c-7.99-2.35-16.82-0.51-24,3.71c-1.05,0.61-2.08,1.29-2.9,2.18
								c-0.82,0.9-1.96,1.95-1.99,3.16"/>
						</g>
					</g>
				</g>
			</g>
		</g>
		<g>
			<g>
				<g>
					<g>
						<path class="st8" d="M518.89,403.2c-0.04-0.04,0.3-0.36,0.7-1.07c0.39-0.7,0.81-1.87,0.59-3.3c-0.18-1.4-1.15-3.04-2.87-3.83
							c-1.68-0.81-4.08-0.56-5.61,1c-1.56,1.53-1.81,3.93-1,5.61c0.79,1.73,2.42,2.69,3.83,2.87c1.43,0.21,2.6-0.2,3.3-0.59
							C518.53,403.5,518.85,403.16,518.89,403.2c0.01,0.01-0.06,0.1-0.21,0.26c-0.15,0.16-0.4,0.38-0.75,0.61
							c-0.69,0.46-1.91,0.97-3.45,0.79c-1.51-0.15-3.32-1.15-4.21-3.04c-0.44-0.92-0.64-2.03-0.46-3.14c0.15-1.11,0.7-2.2,1.53-3.04
							c0.85-0.83,1.93-1.38,3.04-1.53c1.11-0.17,2.22,0.02,3.14,0.46c1.88,0.89,2.89,2.7,3.04,4.21c0.18,1.54-0.33,2.76-0.79,3.45
							c-0.23,0.35-0.45,0.6-0.61,0.75C518.99,403.14,518.9,403.21,518.89,403.2z"/>
					</g>
				</g>
				<g>
					<g>
						<path class="st8" d="M532.17,403.2c-0.04-0.04,0.3-0.36,0.7-1.07c0.39-0.7,0.81-1.87,0.59-3.3c-0.18-1.4-1.15-3.04-2.87-3.83
							c-1.68-0.81-4.08-0.56-5.61,1c-1.56,1.53-1.81,3.93-1,5.61c0.79,1.73,2.42,2.69,3.83,2.87c1.43,0.21,2.6-0.2,3.3-0.59
							C531.81,403.5,532.14,403.16,532.17,403.2c0.01,0.01-0.06,0.1-0.21,0.26c-0.15,0.16-0.4,0.38-0.75,0.61
							c-0.69,0.46-1.91,0.97-3.45,0.79c-1.51-0.15-3.33-1.15-4.21-3.04c-0.44-0.92-0.64-2.03-0.46-3.14c0.15-1.11,0.7-2.2,1.53-3.04
							c0.85-0.83,1.93-1.38,3.04-1.53c1.11-0.17,2.22,0.02,3.14,0.46c1.88,0.89,2.89,2.7,3.04,4.21c0.18,1.54-0.33,2.76-0.79,3.45
							c-0.23,0.35-0.45,0.6-0.61,0.75C532.27,403.14,532.18,403.21,532.17,403.2z"/>
					</g>
				</g>
				<g>
					<g>
						<path class="st8" d="M523.37,399.1c0,0.14-0.66,0.26-1.48,0.26c-0.82,0-1.48-0.12-1.48-0.26c0-0.14,0.66-0.26,1.48-0.26
							C522.7,398.84,523.37,398.96,523.37,399.1z"/>
					</g>
				</g>
			</g>
			<g>
				<g>
					<path class="st8" d="M500.95,398.67c0-0.14,2.04-0.33,4.57-0.41c2.53-0.08,4.59-0.04,4.59,0.11c0,0.14-2.04,0.33-4.58,0.41
						C503.01,398.86,500.95,398.81,500.95,398.67z"/>
				</g>
			</g>
		</g>
	</g>
	<g>
		<g>
			<g>
				<path class="st10" d="M505.78,397.09l-7.18-2.59l-6.8,2.37l-9.41,9.84l-6.12,5.84l10.03,4.44l5.29-2.11l8.43-5.73l4.77-9.01
					c0,0-1.36-0.64-2.89,1.51l-1.43,1.91l-1.37-5.2l0.05-1.54l4.21,1.29c1,0.2,1.74,0.07,2.41-0.7V397.09z"/>
			</g>
			<g>
				<g>
					<path class="st11" d="M492.3,404.69c0.06-0.03,0.35,0.38,0.62,1.14c0.28,0.75,0.49,1.87,0.42,3.11
						c-0.08,1.24-0.44,2.31-0.81,3.03c-0.37,0.72-0.71,1.09-0.76,1.05c-0.14-0.08,0.92-1.75,1.05-4.11
						C492.99,406.55,492.15,404.75,492.3,404.69z"/>
				</g>
			</g>
			<g>
				<g>
					<path class="st11" d="M492.37,404.8c-0.01-0.07,0.97-0.3,2.61-0.62l0.05-0.01l0.06,0.03c0.37,0.18,0.49,0.65,0.42,1.01
						c-0.04,0.39-0.28,0.73-0.45,1.03c-0.18,0.31-0.29,0.62-0.18,0.91c0.1,0.3,0.39,0.57,0.71,0.84l-0.31-0.01
						c0.67-0.48,1.41-1,1.82-1.76c0.7-1.12-0.1-2.28-0.53-3.35c-0.12-0.26-0.22-0.56-0.34-0.69c-0.11-0.13-0.32-0.15-0.56-0.12
						c-0.5,0.08-0.97,0.15-1.42,0.22c-1.74,0.26-2.83,0.39-2.84,0.32c-0.01-0.07,1.05-0.33,2.78-0.68c0.45-0.09,0.93-0.18,1.42-0.28
						c0.26-0.04,0.65-0.07,0.95,0.23c0.26,0.29,0.31,0.55,0.45,0.81c0.24,0.54,0.53,1.06,0.75,1.7c0.24,0.64,0.17,1.47-0.2,2.1
						c-0.5,0.9-1.31,1.44-1.99,1.92l-0.16,0.11l-0.15-0.13c-0.32-0.29-0.68-0.6-0.84-1.07c-0.17-0.49,0.06-0.98,0.25-1.29
						c0.21-0.33,0.39-0.59,0.43-0.87c0.05-0.29-0.01-0.54-0.19-0.63l0.11,0.02C493.39,404.76,492.39,404.87,492.37,404.8z"/>
				</g>
			</g>
			<g>
				<g>
					<path class="st11" d="M497.69,405.56c0.04-0.02,0.11,0.21,0.46,0.32c0.33,0.13,0.92,0,1.12-0.63c0.24-0.6-0.04-1.37-0.42-2.21
						c-0.37-0.84-0.74-1.84-1.16-2.75c-0.43-0.92-1.54-0.76-2.44-0.66c-0.92,0.09-1.74,0.21-2.43,0.32
						c-1.38,0.22-2.23,0.41-2.25,0.33c-0.02-0.06,0.8-0.38,2.18-0.7c0.69-0.16,1.52-0.32,2.45-0.44c0.46-0.05,0.95-0.14,1.51-0.08
						c0.56,0.02,1.18,0.43,1.44,0.97c0.49,1.03,0.8,1.95,1.15,2.83c0.16,0.43,0.34,0.85,0.42,1.29c0.09,0.43,0.06,0.88-0.11,1.24
						c-0.16,0.36-0.44,0.64-0.75,0.74c-0.31,0.1-0.59,0.04-0.79-0.06C497.66,405.86,497.66,405.55,497.69,405.56z"/>
				</g>
			</g>
			<g>
				<g>
					<path class="st11" d="M500.48,403.54c-0.07,0.02-0.33-0.71-0.69-1.91c-0.19-0.67-0.4-1.37-0.61-2.11
						c-0.11-0.39-0.22-0.84-0.35-1.23c-0.13-0.37-0.41-0.68-0.79-0.83c-0.78-0.29-1.68,0.03-2.47,0.24
						c-0.75,0.2-1.46,0.39-2.13,0.57c-1.22,0.31-1.98,0.46-2,0.39c-0.02-0.07,0.71-0.35,1.89-0.75c0.66-0.21,1.36-0.44,2.1-0.67
						c0.77-0.21,1.72-0.64,2.8-0.26c0.52,0.2,0.91,0.66,1.07,1.14c0.14,0.47,0.23,0.87,0.33,1.28c0.18,0.75,0.35,1.47,0.51,2.14
						C500.41,402.75,500.55,403.52,500.48,403.54z"/>
				</g>
			</g>
		</g>
		<g>
			<g>
				<path class="st11" d="M482.38,406.7c0,0,0.05-0.07,0.15-0.19c0.13-0.15,0.29-0.32,0.48-0.53c0.47-0.5,1.09-1.16,1.86-2
					c1.67-1.76,3.99-4.22,6.82-7.21l0.02-0.02l0.03-0.01c2.05-0.72,4.35-1.53,6.8-2.38l0.05-0.02l0.05,0.02
					c2.24,0.8,4.66,1.68,7.18,2.58l0.1,0.04l0,0.11c0,0.09,0,0.2,0,0.3v0.06l-0.04,0.04c-0.28,0.33-0.67,0.63-1.14,0.76
					c-0.47,0.13-0.96,0.08-1.41-0.01l-0.01,0l-0.01,0c-0.94-0.29-1.94-0.59-2.95-0.9c-0.42-0.13-0.84-0.26-1.26-0.38l0.2-0.14
					c-0.02,0.52-0.03,1.03-0.05,1.54l-0.01-0.04c0.47,1.78,0.92,3.51,1.36,5.2l-0.27-0.05c0.62-0.82,1.19-1.62,1.82-2.4
					c0.63-0.73,1.62-1.42,2.68-1.06l0.14,0.05l-0.08,0.15c-1.79,3.37-3.41,6.4-4.79,9l-0.01,0.02l-0.02,0.02
					c-2.58,1.73-4.68,3.14-6.2,4.15c-0.7,0.46-1.26,0.83-1.69,1.12c-0.39,0.25-0.6,0.37-0.6,0.37s0.19-0.15,0.57-0.42
					c0.42-0.3,0.97-0.68,1.66-1.17c1.5-1.03,3.59-2.47,6.14-4.24l-0.04,0.04c1.37-2.6,2.96-5.65,4.74-9.03l0.07,0.2
					c-0.37-0.14-0.86-0.07-1.25,0.13c-0.41,0.2-0.77,0.51-1.08,0.87c-0.6,0.74-1.19,1.58-1.8,2.39l-0.19,0.25l-0.08-0.3
					c-0.44-1.68-0.9-3.42-1.37-5.2l-0.01-0.02l0-0.02c0.02-0.51,0.03-1.02,0.05-1.54l0.01-0.2l0.2,0.06
					c0.42,0.13,0.84,0.26,1.26,0.38c1.01,0.31,2.01,0.62,2.95,0.9l-0.02,0c0.43,0.08,0.88,0.12,1.27,0.01
					c0.4-0.1,0.73-0.36,0.99-0.66l-0.04,0.1c0-0.1,0-0.21,0-0.3l0.1,0.14c-2.52-0.91-4.94-1.79-7.18-2.6l0.1,0
					c-2.45,0.85-4.75,1.64-6.81,2.35l0.05-0.03c-2.86,2.96-5.21,5.39-6.9,7.14c-0.8,0.81-1.43,1.46-1.91,1.95
					c-0.2,0.2-0.37,0.36-0.51,0.5C482.45,406.65,482.39,406.71,482.38,406.7z"/>
			</g>
		</g>
	</g>
	<g>
		<g>
			<g>
				<g>
					<path class="st7" d="M485.3,470l-0.47-34.54l8.99-3c2.83-0.54,5.59-1.57,8.91-1.71c0,0,0,0,0,0c6.25,4.93,15.04,5.05,21.4,0.26
						l0.3-0.23c0.86,0.1,2,0.21,3.43,0.38c0.09,0.01,0.19,0.02,0.28,0.03c3.68,0.46,7.02,1.86,9.83,3.91l0-0.01l44.72,26.69
						l26.26-19.96l13.31,10.43c0,0-34.41,34.4-37.75,35.22c-2.31,0.57-25.26-11.96-39.16-19.72c0.56,8.33,3.68,54.63,3.52,60.96
						h-63.9l-0.05-29.2l0.01-7.95L485.3,470z"/>
				</g>
			</g>
			<g>
				<g>
					<g>
						<path class="st6" d="M544.5,447.96c-0.04,0-0.06,0.55-0.04,1.53c0.03,1.12,0.07,2.51,0.12,4.17
							c0.13,3.52,0.35,8.37,0.64,13.73c0.29,5.36,0.58,10.21,0.83,13.72c0.13,1.65,0.24,3.04,0.33,4.16
							c0.09,0.98,0.16,1.52,0.21,1.52c0.04,0,0.06-0.55,0.04-1.53c-0.03-1.12-0.07-2.51-0.12-4.16c-0.13-3.52-0.36-8.37-0.64-13.74
							c-0.29-5.36-0.59-10.21-0.83-13.72c-0.13-1.65-0.24-3.04-0.33-4.15C544.62,448.5,544.54,447.96,544.5,447.96z"/>
					</g>
				</g>
			</g>
			<g>
				<g>
					<g>
						<path class="st6" d="M601.95,447.5c-0.15,0.15,2.74,2.89,6.42,6.11c3.69,3.22,6.78,5.72,6.89,5.58
							c0.12-0.13-2.78-2.85-6.47-6.07c-1.84-1.61-3.53-3.04-4.77-4.06C602.78,448.05,601.99,447.45,601.95,447.5z"/>
					</g>
				</g>
			</g>
			<g>
				<g>
					<g>
						<path class="st6" d="M598.89,449.78c-0.12,0.14,2.81,2.88,6.51,6.16c1.85,1.64,3.55,3.09,4.81,4.13
							c1.25,1.03,2.06,1.63,2.12,1.57c0.06-0.07-0.64-0.79-1.81-1.91c-1.18-1.12-2.83-2.63-4.68-4.27
							c-1.85-1.64-3.56-3.09-4.81-4.12C599.76,450.31,598.95,449.71,598.89,449.78z"/>
					</g>
				</g>
			</g>
		</g>
		<g>
			<path class="st7" d="M478.29,406.81c0,0-25.56,23.93-33.63,33.67c-3.65,4.41-4.48,10.98-1.55,15.9l0,0
				c2.35,3.93,6.7,6.21,11.26,5.91l30.8-2.06l2.32-25.61l-18.61,5.8l21.68-22.67L478.29,406.81z"/>
		</g>
		<g>
			<g>
				<path class="st6" d="M484.97,480.5c-0.14,0-0.19-5.49-0.1-12.26c0.09-6.77,0.28-12.26,0.43-12.26c0.14,0,0.19,5.49,0.09,12.26
					C485.3,475.01,485.11,480.5,484.97,480.5z"/>
			</g>
		</g>
		<g>
			<g>
				<path class="st6" d="M477.3,431.62c0.02,0.02-0.25,0.36-0.77,0.96c-0.59,0.66-1.34,1.5-2.26,2.52
					c-1.93,2.13-4.66,5.09-7.78,8.44l0.06-0.1c-0.31,1.08-0.67,2.18-1.09,3.3c-0.95,2.54-2.06,4.9-3.4,6.86
					c-1.37,1.95-3.01,3.37-4.53,4.32c-1.52,0.96-2.93,1.39-3.92,1.56c-0.49,0.09-0.88,0.13-1.14,0.13c-0.26,0.01-0.4,0-0.4-0.02
					c0-0.05,0.55-0.08,1.5-0.31c0.95-0.23,2.3-0.71,3.76-1.68c1.45-0.96,3.03-2.38,4.33-4.28c1.28-1.92,2.36-4.26,3.3-6.77
					c0.41-1.1,0.77-2.2,1.08-3.26l0.02-0.06l0.04-0.04c3.13-3.33,5.91-6.25,7.91-8.32c0.96-0.98,1.75-1.79,2.37-2.42
					C476.96,431.9,477.28,431.6,477.3,431.62z"/>
			</g>
		</g>
		<g>
			<g>
				<path class="st6" d="M465,447.41c0.12-0.04,0.74,2.12,0.4,4.83c-0.32,2.71-1.44,4.67-1.55,4.6c-0.15-0.06,0.72-2.05,1.03-4.66
					C465.21,449.57,464.84,447.43,465,447.41z"/>
			</g>
		</g>
		<g>
			<g>
				<path class="st3" d="M494.25,528.07c-0.01,0-0.06-0.06-0.15-0.2c-0.1-0.17-0.23-0.37-0.39-0.62c-0.35-0.59-0.83-1.39-1.44-2.4
					c-0.61-1.05-1.41-2.31-2.13-3.9c-0.7-1.57-1.35-3.59-0.89-5.8c0.41-2.21,1.72-4.28,2.67-6.61c0.47-1.17,0.8-2.43,0.83-3.77
					c0.05-1.34-0.13-2.72-0.43-4.11c-0.58-2.79-1.67-5.65-1.95-8.83c-0.31-3.16,0.15-6.44,0.86-9.69c0.72-3.25,1.63-6.37,2.26-9.42
					c0.32-1.53,0.55-3.04,0.71-4.52c0.04-0.75,0.1-1.48,0.12-2.21c-0.01-0.73,0.01-1.45-0.02-2.17c-0.24-5.73-1.56-10.77-2.51-15
					c-1-4.23-1.71-7.69-2.03-10.11c-0.17-1.21-0.26-2.15-0.3-2.79c-0.02-0.29-0.03-0.53-0.05-0.73c-0.01-0.16-0.01-0.25,0-0.25
					c0.01,0,0.03,0.08,0.05,0.24c0.03,0.19,0.06,0.43,0.1,0.72c0.07,0.64,0.2,1.57,0.39,2.77c0.38,2.4,1.14,5.83,2.19,10.05
					c1,4.22,2.36,9.27,2.63,15.07c0.03,0.72,0.02,1.46,0.03,2.2c-0.02,0.74-0.08,1.49-0.12,2.25c-0.15,1.51-0.38,3.04-0.7,4.58
					c-0.64,3.08-1.54,6.2-2.26,9.43c-0.7,3.22-1.16,6.44-0.86,9.53c0.26,3.09,1.33,5.94,1.91,8.78c0.3,1.42,0.47,2.84,0.42,4.23
					c-0.04,1.39-0.39,2.72-0.89,3.92c-1,2.38-2.3,4.41-2.71,6.52c-0.45,2.1,0.14,4.06,0.8,5.62c0.69,1.57,1.45,2.85,2.04,3.92
					c0.57,1.04,1.03,1.85,1.36,2.45c0.14,0.26,0.25,0.47,0.34,0.64C494.22,527.99,494.26,528.07,494.25,528.07z"/>
			</g>
		</g>
		<g>
			<g>
				<path class="st3" d="M508.16,434.61c0.01,0,0.03,0.08,0.07,0.24c0.04,0.19,0.09,0.42,0.16,0.71c0.14,0.62,0.31,1.55,0.5,2.74
					c0.38,2.39,0.81,5.88,0.87,10.21c0.08,4.33-0.25,9.51-1.31,15.14c-1.01,5.63-2.66,11.72-3.2,18.27
					c-0.49,6.56,0.45,12.81,1.23,18.45c0.82,5.65,1.49,10.78,1.52,15.12c0.02,4.34-0.5,7.85-1.21,10.17
					c-0.08,0.29-0.15,0.57-0.21,0.83c-0.09,0.25-0.18,0.49-0.25,0.71c-0.16,0.43-0.3,0.79-0.41,1.11c-0.11,0.27-0.19,0.49-0.26,0.67
					c-0.06,0.15-0.1,0.23-0.11,0.22c-0.01,0,0.01-0.09,0.06-0.24c0.06-0.19,0.13-0.41,0.21-0.69c0.1-0.31,0.22-0.69,0.36-1.12
					c0.07-0.22,0.15-0.46,0.23-0.71c0.06-0.26,0.12-0.54,0.19-0.83c0.64-2.32,1.11-5.81,1.04-10.11c-0.08-4.31-0.78-9.41-1.62-15.06
					c-0.8-5.64-1.77-11.93-1.28-18.56c0.55-6.62,2.22-12.71,3.25-18.32c1.08-5.6,1.44-10.74,1.41-15.05
					c-0.02-4.31-0.39-7.79-0.7-10.18c-0.16-1.2-0.3-2.12-0.4-2.75c-0.04-0.29-0.08-0.52-0.11-0.72
					C508.16,434.7,508.15,434.61,508.16,434.61z"/>
			</g>
		</g>
		<g>
			<g>
				<path class="st3" d="M531.65,528.11c-0.01,0-0.06-0.07-0.14-0.21c-0.1-0.17-0.22-0.38-0.37-0.64c-0.18-0.28-0.34-0.65-0.51-1.1
					c-0.08-0.22-0.19-0.46-0.27-0.72c-0.07-0.27-0.14-0.55-0.22-0.86c-0.28-1.21-0.44-2.75-0.32-4.51c0.09-1.77,0.41-3.75,0.78-5.93
					c0.37-2.18,0.82-4.56,0.89-7.14c0.12-2.58-0.44-5.3-1.41-8.05c-0.93-2.76-2.18-5.6-2.78-8.77c-0.61-3.18-0.34-6.55,0.19-9.89
					c0.52-3.34,1.21-6.57,1.39-9.73c0.2-3.15-0.17-6.21-0.71-9.07c-1.11-5.72-2.67-10.79-3.2-15.21c-0.59-4.41-0.31-8.06,0.32-10.47
					c0.6-2.42,1.32-3.61,1.32-3.61c0.01,0-0.02,0.09-0.07,0.24c-0.07,0.18-0.16,0.41-0.26,0.69c-0.22,0.61-0.52,1.52-0.79,2.72
					c-0.56,2.4-0.78,6.01-0.15,10.37c0.57,4.38,2.15,9.42,3.3,15.17c0.55,2.88,0.94,5.97,0.75,9.19c-0.18,3.21-0.87,6.45-1.39,9.78
					c-0.52,3.31-0.79,6.62-0.2,9.71c0.58,3.1,1.81,5.93,2.74,8.71c0.47,1.39,0.87,2.78,1.11,4.16c0.25,1.38,0.33,2.75,0.27,4.06
					c-0.09,2.63-0.57,5.02-0.96,7.19c-0.4,2.17-0.74,4.14-0.86,5.89c-0.14,1.74-0.01,3.25,0.23,4.45
					C530.86,526.95,531.74,528.07,531.65,528.11z"/>
			</g>
		</g>
		<g>
			<g>
				<path class="st3" d="M540.09,438.26c0.01,0,0.04,0.07,0.08,0.22c0.05,0.18,0.11,0.4,0.19,0.67c0.18,0.59,0.37,1.47,0.59,2.62
					c0.41,2.3,0.65,5.69,0.39,9.86c-0.24,4.17-1.04,9.07-1.79,14.51c-0.72,5.44-1.16,11.47-1.11,17.81
					c0.12,12.69,1.71,24.1,2.88,32.33c0.61,4.08,1.11,7.4,1.46,9.74c0.16,1.12,0.29,2,0.39,2.65c0.04,0.28,0.06,0.5,0.09,0.69
					c0.02,0.16,0.02,0.24,0.01,0.24c-0.01,0-0.03-0.08-0.06-0.23c-0.04-0.18-0.08-0.41-0.14-0.68c-0.12-0.65-0.28-1.52-0.48-2.64
					c-0.4-2.29-0.98-5.61-1.62-9.72c-1.26-8.22-2.92-19.64-3.04-32.38c-0.05-6.36,0.4-12.42,1.15-17.88
					c0.78-5.45,1.62-10.33,1.9-14.47c0.31-4.14,0.13-7.51-0.22-9.8c-0.18-1.15-0.34-2.03-0.49-2.63c-0.06-0.27-0.1-0.5-0.14-0.68
					C540.09,438.35,540.08,438.27,540.09,438.26z"/>
			</g>
		</g>
		<g>
			<g>
				<path class="st3" d="M555.49,474.01c-0.04,0-0.09-0.36-0.15-1.03c-0.06-0.66-0.13-1.62-0.19-2.81
					c-0.13-2.37-0.24-5.65-0.25-9.28c-0.02-3.63,0.07-6.91,0.17-9.28c0.05-1.19,0.11-2.15,0.17-2.81c0.05-0.66,0.1-1.03,0.14-1.03
					c0.04,0,0.06,0.37,0.07,1.03c0,0.78,0,1.72,0,2.81c-0.01,2.51-0.01,5.72-0.02,9.27c0.04,3.55,0.07,6.76,0.1,9.27
					c0.01,1.09,0.02,2.03,0.02,2.81C555.54,473.64,555.53,474,555.49,474.01z"/>
			</g>
		</g>
		<g>
			<g>
				<path class="st3" d="M565.16,451.49c0.04,0.03-0.17,0.33-0.46,0.91c-0.28,0.58-0.59,1.48-0.58,2.64c0,1.15,0.24,2.55,0.4,4.09
					c0.19,1.54,0.53,3.22,0.76,5.01c0.25,1.8,0.23,3.55,0.1,5.11c-0.12,1.57-0.49,2.98-0.97,4.08c-0.49,1.1-1.06,1.89-1.48,2.4
					c-0.42,0.52-0.69,0.76-0.71,0.74c-0.1-0.07,0.96-1.14,1.85-3.29c0.87-2.15,1.13-5.46,0.7-8.98c-0.22-1.77-0.55-3.46-0.72-5.02
					c-0.14-1.56-0.35-2.94-0.3-4.16c0.04-1.21,0.42-2.16,0.77-2.73C564.88,451.73,565.14,451.48,565.16,451.49z"/>
			</g>
		</g>
		<g>
			<g>
				<path class="st3" d="M457.44,460.63c0-0.04,0.48-0.03,1.34-0.03c0.85-0.01,2.11,0.03,3.57-0.33c1.47-0.34,3-1.37,4.32-2.88
					c1.32-1.51,2.66-3.32,4.13-5.14c2.92-3.67,5.58-6.98,7.53-9.36c0.93-1.12,1.71-2.06,2.33-2.8c0.56-0.65,0.88-1,0.91-0.98
					c0.03,0.02-0.24,0.42-0.75,1.11c-0.58,0.77-1.32,1.74-2.2,2.9c-1.87,2.44-4.49,5.78-7.41,9.46c-1.48,1.83-2.8,3.61-4.18,5.14
					c-1.37,1.53-3.03,2.61-4.59,2.91c-1.54,0.33-2.81,0.23-3.67,0.18C457.91,460.74,457.44,460.66,457.44,460.63z"/>
			</g>
		</g>
		<g>
			<g>
				<path class="st3" d="M482.83,412.79c0.02,0.01-0.07,0.21-0.24,0.58c-0.19,0.37-0.39,0.96-0.85,1.6
					c-0.8,1.36-2.28,3.16-4.44,4.96c-2.15,1.83-4.96,3.67-7.95,5.84c-2.97,2.16-6.15,4.85-8.07,8.65c-0.97,1.88-1.77,3.85-2.93,5.55
					c-1.15,1.72-2.72,3-4.24,4.07c-1.53,1.07-3.06,1.96-4.39,2.91c-1.34,0.94-2.5,1.94-3.36,3.02c-1.78,2.15-2.1,4.56-1.86,6.06
					c0.25,1.54,0.9,2.22,0.83,2.25c-0.01,0.01-0.04-0.03-0.11-0.12c-0.06-0.09-0.17-0.21-0.27-0.39c-0.23-0.35-0.49-0.92-0.65-1.71
					c-0.31-1.54-0.04-4.06,1.77-6.32c0.88-1.13,2.05-2.17,3.4-3.14c1.34-0.98,2.86-1.89,4.37-2.95c1.5-1.06,3-2.31,4.1-3.96
					c1.12-1.65,1.9-3.59,2.89-5.5c1.98-3.91,5.25-6.66,8.25-8.8c3.02-2.17,5.84-3.96,8-5.74c2.17-1.75,3.67-3.48,4.51-4.79
					c0.48-0.62,0.71-1.19,0.93-1.54C482.7,412.97,482.81,412.79,482.83,412.79z"/>
			</g>
		</g>
		<g class="st12">
			<g>
				<path d="M452.6,459.46c4.14,0.05,8.28-1.61,11.24-4.52c2.95-2.91,4.69-7.01,4.71-11.16c0-0.53-0.08-1.16-0.56-1.4
					c-0.43-0.21-0.97,0.04-1.25,0.43c-0.28,0.39-0.36,0.88-0.45,1.35c-1.31,6.82-6.1,12.87-12.44,15.69"/>
			</g>
		</g>
		<g class="st12">
			<g>
				<path d="M575.54,458.67c-0.73,0.44-1.11,1.27-1.57,1.99c-2.17,3.41-6.46,4.79-9.32,7.65c-2.19,2.19-3.95,4.78-3.95,7.87
					l4.69,2.13c4.07-6.32,8.13-12.65,12.2-18.97C577.48,458.49,576.26,458.22,575.54,458.67z"/>
			</g>
		</g>
	</g>
</g>
<g>
	<g>
		<g>
			<g>
				<g>
					<path class="st1" d="M356.12,695.16c0,0-16.41,3.53-7.88,23.54c8.53,20.01,3.44,25.46-2.46,26.86l45.1-0.28l3.95-50.29
						L356.12,695.16z"/>
				</g>
				<g>
					<path class="st2" d="M388.95,745.54c-3.2,0.01-6.29-1.14-8.69-3.25c-3.71-3.27-8.29-9.36-9.2-19.94
						c-1.92-22.39-14.94-27.17-14.94-27.17l38.72-0.18c0,0,12.57,0.01,13.58,19.88c1.07,20.82,29.95,32.78,47.78,30.46
						L388.95,745.54z"/>
				</g>
				<g>
					<path class="st0" d="M446.57,660.56c0,0-20.28-2.43-22.53,42.49c-2.25,44.91-36.22,42.49-36.22,42.49h67.72
						c0,0,14.1-3.13,10.81-34.87c-1.38-13.3,22.49-50.11,22.49-50.11H446.57z"/>
				</g>
				<g>
					<path class="st1" d="M435.27,665.64c-2.16,2.59-1.28,6.74,0.61,9.54c1.88,2.8,4.84,4.69,7.84,6.25c3,1.56,6.15,2.89,8.83,4.93
						c4.16,3.18,6.93,7.9,8.62,12.86c1.69,4.96,2.38,10.19,3.06,15.38c0,0-2.22-37.28-8.77-47.61
						C448.9,656.66,439.41,660.68,435.27,665.64z"/>
				</g>
				<g>
					<g>
						<path class="st2" d="M487.48,745.53c0,0-19.99,1.03-22.78-22.21c-2.79-23.24-5.11-61.36-18.13-62.76l40.96-0.02
							c5.76,0,10.97,3.5,13.06,8.88c1.78,4.58,3.6,11.36,4.72,21.22c2.37,20.83,14.17,55.14,43.73,54.84L487.48,745.53z"/>
					</g>
				</g>
				<g>
					<g>
						<g>
							<path class="st6" d="M500.93,726.41c0,0.14-5.98,0.26-13.35,0.26c-7.37,0-13.35-0.12-13.35-0.26c0-0.14,5.98-0.26,13.35-0.26
								C494.96,726.15,500.93,726.26,500.93,726.41z"/>
						</g>
					</g>
					<g>
						<g>
							<path class="st6" d="M507.75,728.02c-0.05-0.07-0.17-1.69-0.23-3.93l0.23,0.23c-1.2,0.01-2.52,0.02-3.93,0.04
								c-0.06,0.06,0.49-0.49,0.26-0.26v0v0v0v0.01v0.02v0.03l0,0.07l0,0.13l0,0.27l0,0.53c0,0.35,0,0.68-0.01,1.02
								c-0.01,0.65-0.02,1.26-0.03,1.85l-0.23-0.23C506.06,727.85,507.67,727.97,507.75,728.02c0.07,0.05-1.46,0.17-3.93,0.23
								l-0.22,0.01l0-0.23c-0.01-0.59-0.02-1.21-0.03-1.85c0-0.33,0-0.67-0.01-1.02l0-0.53l0-0.27l0-0.13v-0.07v-0.03v-0.02v-0.01v0
								v0v0c-0.23,0.23,0.32-0.32,0.26-0.26c1.41,0.01,2.73,0.02,3.93,0.04l0.23,0l-0.01,0.22
								C507.92,726.56,507.8,728.1,507.75,728.02z"/>
						</g>
					</g>
				</g>
				<g>
					<g>
						<g>
							<path class="st6" d="M507.07,735.02c0,0.14-5.98,0.26-13.35,0.26c-7.37,0-13.35-0.12-13.35-0.26c0-0.14,5.98-0.26,13.35-0.26
								C501.09,734.76,507.07,734.88,507.07,735.02z"/>
						</g>
					</g>
					<g>
						<g>
							<path class="st6" d="M513.88,736.64c-0.05-0.07-0.17-1.69-0.23-3.93l0.23,0.23c-1.2,0.01-2.52,0.02-3.93,0.04
								c-0.06,0.06,0.49-0.49,0.26-0.26v0v0v0v0.01v0.02v0.03v0.07l0,0.13l0,0.27l0,0.53c0,0.35,0,0.68-0.01,1.02
								c-0.01,0.65-0.02,1.26-0.03,1.85l-0.23-0.23C512.19,736.47,513.81,736.58,513.88,736.64c0.07,0.05-1.46,0.17-3.93,0.23
								l-0.22,0.01l0-0.23c-0.01-0.59-0.02-1.21-0.03-1.85c0-0.33,0-0.67-0.01-1.02l0-0.53l0-0.27l0-0.13v-0.07v-0.03v-0.02v-0.01v0
								v0v0c-0.23,0.23,0.32-0.32,0.26-0.26c1.41,0.01,2.73,0.02,3.93,0.04l0.23,0l-0.01,0.22
								C514.05,735.18,513.94,736.71,513.88,736.64z"/>
						</g>
					</g>
				</g>
				<g>
					<g>
						<g>
							<path class="st6" d="M495.79,704.71c0,0.14-5.98,0.26-13.35,0.26c-7.37,0-13.35-0.12-13.35-0.26s5.98-0.26,13.35-0.26
								C489.81,704.45,495.79,704.56,495.79,704.71z"/>
						</g>
					</g>
					<g>
						<g>
							<path class="st6" d="M502.6,706.32c-0.05-0.07-0.17-1.69-0.23-3.93l0.23,0.23c-1.2,0.01-2.52,0.02-3.93,0.04
								c-0.06,0.06,0.49-0.49,0.26-0.26v0v0v0v0.01v0.02v0.03v0.07l0,0.13l0,0.27l0,0.53c0,0.35,0,0.68-0.01,1.02
								c-0.01,0.65-0.02,1.26-0.03,1.85l-0.23-0.23C500.91,706.15,502.53,706.27,502.6,706.32c0.07,0.05-1.46,0.17-3.93,0.23
								l-0.22,0.01l0-0.23c-0.01-0.59-0.02-1.21-0.03-1.85c0-0.33,0-0.67-0.01-1.02l0-0.53l0-0.27l0-0.13v-0.07v-0.03v-0.02v-0.01v0
								v0v0c-0.23,0.23,0.32-0.32,0.26-0.26c1.41,0.01,2.73,0.02,3.93,0.04l0.23,0l-0.01,0.22
								C502.77,704.86,502.66,706.4,502.6,706.32z"/>
						</g>
					</g>
				</g>
				<g>
					<g>
						<g>
							<path class="st6" d="M494.32,693.38c0,0.14-5.98,0.26-13.35,0.26c-7.37,0-13.35-0.12-13.35-0.26s5.98-0.26,13.35-0.26
								C488.35,693.12,494.32,693.24,494.32,693.38z"/>
						</g>
					</g>
					<g>
						<g>
							<path class="st6" d="M501.14,695c-0.05-0.07-0.17-1.69-0.23-3.93l0.23,0.23c-1.2,0.01-2.52,0.02-3.93,0.04
								c-0.06,0.06,0.49-0.49,0.26-0.26v0v0v0v0.01v0.02v0.03v0.07l0,0.13l0,0.27l0,0.53c0,0.35,0,0.68-0.01,1.02
								c-0.01,0.65-0.02,1.26-0.03,1.85l-0.23-0.23C499.45,694.83,501.06,694.94,501.14,695c0.07,0.05-1.46,0.17-3.93,0.23
								l-0.22,0.01l0-0.23c-0.01-0.59-0.02-1.21-0.03-1.85c0-0.33,0-0.67-0.01-1.02l0-0.53l0-0.27l0-0.13v-0.07v-0.03v-0.02v-0.01v0
								v0v0c-0.23,0.23,0.32-0.32,0.26-0.26c1.41,0.01,2.73,0.02,3.93,0.04l0.23,0l-0.01,0.22
								C501.3,693.54,501.19,695.07,501.14,695z"/>
						</g>
					</g>
				</g>
				<g>
					<g>
						<g>
							<path class="st6" d="M492.38,683.01c0,0.14-5.98,0.26-13.35,0.26c-7.37,0-13.35-0.12-13.35-0.26s5.98-0.26,13.35-0.26
								C486.4,682.75,492.38,682.86,492.38,683.01z"/>
						</g>
					</g>
					<g>
						<g>
							<path class="st6" d="M499.19,684.62c-0.05-0.07-0.17-1.69-0.23-3.93l0.23,0.23c-1.2,0.01-2.52,0.02-3.93,0.04
								c-0.06,0.06,0.49-0.49,0.26-0.26v0v0v0v0.01v0.02v0.03l0,0.07l0,0.13l0,0.27l0,0.53c0,0.35,0,0.68-0.01,1.02
								c-0.01,0.65-0.02,1.26-0.03,1.85l-0.23-0.23C497.51,684.45,499.12,684.57,499.19,684.62c0.07,0.05-1.46,0.17-3.93,0.23
								l-0.22,0.01l0-0.23c-0.01-0.59-0.02-1.21-0.03-1.85c0-0.33,0-0.67-0.01-1.02l0-0.53l0-0.27l0-0.13v-0.07v-0.03v-0.02v-0.01v0
								v0v0c-0.23,0.23,0.32-0.32,0.26-0.26c1.41,0.01,2.73,0.02,3.93,0.04l0.23,0l-0.01,0.22
								C499.36,683.16,499.25,684.7,499.19,684.62z"/>
						</g>
					</g>
				</g>
				<g>
					<g>
						<g>
							<path class="st6" d="M489.63,673.5c0,0.14-5.98,0.26-13.35,0.26c-7.37,0-13.35-0.12-13.35-0.26c0-0.14,5.98-0.26,13.35-0.26
								C483.66,673.23,489.63,673.35,489.63,673.5z"/>
						</g>
					</g>
					<g>
						<g>
							<path class="st6" d="M496.45,675.11c-0.05-0.07-0.17-1.69-0.23-3.93l0.23,0.23c-1.2,0.01-2.52,0.02-3.93,0.04
								c-0.06,0.06,0.49-0.49,0.26-0.26v0v0v0v0.01v0.02v0.03l0,0.07l0,0.13l0,0.27l0,0.53c0,0.35,0,0.68-0.01,1.02
								c-0.01,0.65-0.02,1.26-0.03,1.85l-0.23-0.23C494.76,674.94,496.37,675.06,496.45,675.11c0.07,0.05-1.46,0.17-3.93,0.23
								l-0.22,0.01l0-0.23c-0.01-0.59-0.02-1.21-0.03-1.85c0-0.33,0-0.67-0.01-1.02l0-0.53l0-0.27l0-0.13v-0.07v-0.03v-0.02v-0.01v0
								v0v0c-0.23,0.23,0.32-0.32,0.26-0.26c1.41,0.01,2.73,0.02,3.93,0.04l0.23,0l-0.01,0.22
								C496.62,673.65,496.5,675.18,496.45,675.11z"/>
						</g>
					</g>
				</g>
				<g>
					<g>
						<g>
							<path class="st6" d="M485,665.52c0,0.14-5.98,0.26-13.35,0.26c-7.37,0-13.35-0.12-13.35-0.26c0-0.14,5.98-0.26,13.35-0.26
								C479.02,665.26,485,665.38,485,665.52z"/>
						</g>
					</g>
					<g>
						<g>
							<path class="st6" d="M491.82,667.13c-0.05-0.07-0.17-1.69-0.23-3.93l0.23,0.23c-1.2,0.01-2.52,0.02-3.93,0.04
								c-0.06,0.06,0.49-0.49,0.26-0.26v0v0v0v0.01v0.02v0.03v0.07l0,0.13l0,0.27l0,0.53c0,0.35,0,0.68-0.01,1.02
								c-0.01,0.65-0.02,1.26-0.03,1.85l-0.23-0.23C490.13,666.97,491.74,667.08,491.82,667.13c0.07,0.05-1.46,0.17-3.93,0.23
								l-0.22,0.01l0-0.23c-0.01-0.59-0.02-1.21-0.03-1.85c0-0.33,0-0.67-0.01-1.02l0-0.53l0-0.27l0-0.13l0-0.07v-0.03v-0.02v-0.01
								v0v0v0c-0.23,0.23,0.32-0.32,0.26-0.26c1.41,0.01,2.73,0.02,3.93,0.04l0.23,0l-0.01,0.22
								C491.98,665.68,491.87,667.21,491.82,667.13z"/>
						</g>
					</g>
				</g>
				<g>
					<g>
						<path class="st7" d="M494.31,685.9c-0.11-0.09,0.7-1.26,1.8-2.61c0.22-0.27,0.44-0.52,0.67-0.79l0.17-0.2l0.18,0.17
							c0.91,0.84,1.52,1.49,1.45,1.57c-0.07,0.09-0.81-0.42-1.77-1.2l0.35-0.03c-0.22,0.28-0.43,0.54-0.65,0.81
							C495.41,684.97,494.42,685.99,494.31,685.9z"/>
					</g>
				</g>
				<g>
					<g>
						<path class="st7" d="M496.37,695.8c-0.11-0.09,0.7-1.26,1.8-2.61c0.22-0.27,0.44-0.52,0.67-0.79l0.17-0.2l0.18,0.17
							c0.91,0.84,1.52,1.49,1.45,1.57c-0.07,0.09-0.81-0.42-1.77-1.2l0.35-0.03c-0.22,0.28-0.43,0.54-0.65,0.81
							C497.47,694.87,496.48,695.89,496.37,695.8z"/>
					</g>
				</g>
				<g>
					<g>
						<path class="st7" d="M502.23,729.65c-0.11-0.09,0.7-1.26,1.8-2.61c0.22-0.27,0.44-0.52,0.67-0.79l0.17-0.2l0.18,0.17
							c0.91,0.84,1.52,1.49,1.45,1.57c-0.07,0.09-0.81-0.42-1.77-1.2l0.35-0.03c-0.22,0.28-0.43,0.54-0.65,0.81
							C503.33,728.72,502.34,729.74,502.23,729.65z"/>
					</g>
				</g>
				<g>
					<g>
						<path class="st7" d="M497.85,707.2c-0.11-0.09,0.7-1.26,1.8-2.61c0.22-0.27,0.44-0.52,0.67-0.79l0.17-0.2l0.18,0.17
							c0.91,0.84,1.52,1.49,1.45,1.57c-0.07,0.09-0.81-0.42-1.77-1.2l0.35-0.03c-0.22,0.28-0.43,0.54-0.65,0.81
							C498.95,706.27,497.96,707.29,497.85,707.2z"/>
					</g>
				</g>
				<g>
					<g>
						<g>
							<g>
								<path class="st6" d="M498.36,715.56c0,0.14-5.98,0.26-13.35,0.26c-7.37,0-13.35-0.12-13.35-0.26s5.98-0.26,13.35-0.26
									C492.38,715.3,498.36,715.41,498.36,715.56z"/>
							</g>
						</g>
						<g>
							<g>
								<path class="st6" d="M505.17,717.17c-0.05-0.07-0.17-1.69-0.23-3.93l0.23,0.23c-1.2,0.01-2.52,0.02-3.93,0.04
									c-0.06,0.06,0.49-0.49,0.26-0.26v0v0v0v0.01v0.02v0.03l0,0.07l0,0.13l0,0.27l0,0.53c0,0.35,0,0.68-0.01,1.02
									c-0.01,0.65-0.02,1.26-0.03,1.85l-0.23-0.23C503.49,717,505.1,717.12,505.17,717.17c0.07,0.05-1.46,0.17-3.93,0.23
									l-0.22,0.01l0-0.23c-0.01-0.59-0.02-1.21-0.03-1.85c0-0.33,0-0.67-0.01-1.02l0-0.53l0-0.27l0-0.13v-0.07v-0.03v-0.02v-0.01
									v0v0v0c-0.23,0.23,0.32-0.32,0.26-0.26c1.41,0.01,2.73,0.02,3.93,0.04l0.23,0l-0.01,0.22
									C505.34,715.71,505.23,717.25,505.17,717.17z"/>
							</g>
						</g>
					</g>
					<g>
						<g>
							<path class="st7" d="M499.86,718.51c-0.11-0.09,0.7-1.26,1.8-2.61c0.22-0.27,0.44-0.52,0.67-0.79l0.17-0.2l0.18,0.17
								c0.91,0.84,1.52,1.49,1.45,1.57c-0.07,0.09-0.81-0.42-1.77-1.2l0.35-0.03c-0.22,0.28-0.43,0.54-0.65,0.81
								C500.96,717.58,499.98,718.6,499.86,718.51z"/>
						</g>
					</g>
				</g>
				<g>
					<g>
						<g>
							<g>
								<path class="st6" d="M387.39,732.46c0-0.14,5.42-0.26,12.11-0.26c6.69,0,12.11,0.12,12.11,0.26c0,0.14-5.42,0.26-12.11,0.26
									C392.82,732.72,387.39,732.6,387.39,732.46z"/>
							</g>
						</g>
						<g>
							<g>
								<path class="st6" d="M381.21,730.99c0.05,0.07,0.17,1.54,0.23,3.57l-0.23-0.23c1.1-0.01,2.29-0.02,3.57-0.04
									c0.06-0.06-0.49,0.49-0.26,0.26v0v0v0v-0.01v-0.02v-0.03v-0.06l0-0.12l0-0.24l0-0.48c0-0.31,0-0.62,0.01-0.92
									c0.01-0.58,0.02-1.14,0.03-1.68l0.23,0.23C382.75,731.16,381.29,731.05,381.21,730.99c-0.07-0.05,1.31-0.17,3.57-0.23
									l0.22-0.01l0,0.23c0.01,0.54,0.02,1.1,0.03,1.68c0,0.3,0,0.61,0.01,0.92l0,0.48l0,0.24l0,0.12l0,0.06v0.03v0.02v0.01v0v0v0
									c0.23-0.23-0.32,0.32-0.26,0.26c-1.27-0.01-2.47-0.02-3.57-0.04l-0.23,0l0.01-0.22
									C381.04,732.31,381.16,730.92,381.21,730.99z"/>
							</g>
						</g>
					</g>
					<g>
						<g>
							<path class="st7" d="M386.03,729.78c0.11,0.09-0.61,1.16-1.62,2.38c-0.2,0.24-0.4,0.47-0.61,0.72l-0.17,0.2l-0.18-0.17
								c-0.83-0.76-1.37-1.36-1.3-1.45c0.07-0.09,0.75,0.37,1.62,1.07l-0.35,0.03c0.2-0.26,0.39-0.49,0.59-0.74
								C385.01,730.61,385.92,729.69,386.03,729.78z"/>
						</g>
					</g>
				</g>
				<g>
					<g>
						<g>
							<g>
								<path class="st6" d="M382.58,725.35c0-0.14,5.42-0.26,12.11-0.26c6.69,0,12.11,0.12,12.11,0.26c0,0.14-5.42,0.26-12.11,0.26
									C388,725.61,382.58,725.49,382.58,725.35z"/>
							</g>
						</g>
						<g>
							<g>
								<path class="st6" d="M376.39,723.88c0.05,0.07,0.17,1.54,0.23,3.57l-0.23-0.23c1.1-0.01,2.29-0.02,3.57-0.04
									c0.06-0.06-0.49,0.49-0.26,0.26v0v0v0v-0.01v-0.02v-0.03v-0.06l0-0.12l0-0.24l0-0.48c0-0.31,0-0.62,0.01-0.92
									c0.01-0.58,0.02-1.14,0.03-1.68l0.23,0.23C377.93,724.05,376.47,723.94,376.39,723.88c-0.07-0.05,1.31-0.17,3.57-0.23
									l0.22-0.01l0,0.23c0.01,0.54,0.02,1.1,0.03,1.68c0,0.3,0,0.61,0.01,0.92l0,0.48l0,0.24l0,0.12v0.06v0.03v0.02v0.01v0v0v0
									c0.23-0.23-0.32,0.32-0.26,0.26c-1.27-0.01-2.47-0.02-3.57-0.04l-0.23,0l0.01-0.22
									C376.22,725.2,376.34,723.81,376.39,723.88z"/>
							</g>
						</g>
					</g>
					<g>
						<g>
							<path class="st7" d="M381.21,722.67c0.11,0.09-0.61,1.16-1.62,2.38c-0.2,0.24-0.4,0.47-0.61,0.72l-0.17,0.2l-0.18-0.17
								c-0.83-0.76-1.37-1.36-1.3-1.45c0.07-0.09,0.75,0.37,1.62,1.07l-0.35,0.03c0.2-0.26,0.39-0.49,0.59-0.74
								C380.19,723.5,381.1,722.58,381.21,722.67z"/>
						</g>
					</g>
				</g>
				<g>
					<g>
						<g>
							<g>
								<path class="st6" d="M380.93,717.32c0-0.14,5.42-0.26,12.11-0.26c6.69,0,12.11,0.12,12.11,0.26s-5.42,0.26-12.11,0.26
									C386.36,717.58,380.93,717.46,380.93,717.32z"/>
							</g>
						</g>
						<g>
							<g>
								<path class="st6" d="M374.75,715.85c0.05,0.07,0.17,1.54,0.23,3.57l-0.23-0.23c1.1-0.01,2.29-0.02,3.57-0.04
									c0.06-0.06-0.49,0.49-0.26,0.26v0v0v0v-0.01v-0.02v-0.03v-0.06l0-0.12l0-0.24l0-0.48c0-0.31,0-0.62,0.01-0.92
									c0.01-0.58,0.02-1.14,0.03-1.68l0.23,0.23C376.29,716.02,374.82,715.91,374.75,715.85c-0.07-0.05,1.31-0.17,3.57-0.23
									l0.22-0.01l0,0.23c0.01,0.54,0.02,1.1,0.03,1.68c0,0.3,0,0.61,0.01,0.92l0,0.48l0,0.24l0,0.12l0,0.06v0.03v0.02v0.01v0v0v0
									c0.23-0.23-0.32,0.32-0.26,0.26c-1.27-0.01-2.47-0.02-3.57-0.04l-0.23,0l0.01-0.22
									C374.58,717.17,374.7,715.78,374.75,715.85z"/>
							</g>
						</g>
					</g>
					<g>
						<g>
							<path class="st7" d="M379.57,714.64c0.11,0.09-0.61,1.16-1.62,2.38c-0.2,0.24-0.4,0.47-0.61,0.72l-0.17,0.2l-0.18-0.17
								c-0.83-0.76-1.37-1.36-1.3-1.45c0.07-0.09,0.75,0.37,1.62,1.07l-0.35,0.03c0.2-0.26,0.39-0.49,0.59-0.74
								C378.55,715.47,379.46,714.55,379.57,714.64z"/>
						</g>
					</g>
				</g>
				<g>
					<g>
						<g>
							<g>
								<path class="st6" d="M379.16,709.11c0-0.14,5.42-0.26,12.11-0.26c6.69,0,12.11,0.12,12.11,0.26s-5.42,0.26-12.11,0.26
									C384.58,709.37,379.16,709.25,379.16,709.11z"/>
							</g>
						</g>
						<g>
							<g>
								<path class="st6" d="M372.98,707.64c0.05,0.07,0.17,1.54,0.23,3.57l-0.23-0.23c1.1-0.01,2.29-0.02,3.57-0.04
									c0.06-0.06-0.49,0.49-0.26,0.26v0v0v0v-0.01v-0.02v-0.03v-0.06l0-0.12l0-0.24l0-0.48c0-0.31,0-0.62,0.01-0.92
									c0.01-0.58,0.02-1.14,0.03-1.68l0.23,0.23C374.52,707.81,373.05,707.69,372.98,707.64c-0.07-0.05,1.31-0.17,3.57-0.23
									l0.22-0.01l0,0.23c0.01,0.54,0.02,1.1,0.03,1.68c0,0.3,0,0.61,0.01,0.92l0,0.48l0,0.24l0,0.12l0,0.06v0.03v0.02v0.01v0v0v0
									c0.23-0.23-0.32,0.32-0.26,0.26c-1.27-0.01-2.47-0.02-3.57-0.04l-0.23,0l0.01-0.22
									C372.81,708.95,372.92,707.57,372.98,707.64z"/>
							</g>
						</g>
					</g>
					<g>
						<g>
							<path class="st7" d="M377.79,706.43c0.11,0.09-0.61,1.16-1.62,2.38c-0.2,0.24-0.4,0.47-0.61,0.72l-0.17,0.2l-0.18-0.17
								c-0.83-0.76-1.37-1.36-1.3-1.45c0.07-0.09,0.75,0.37,1.62,1.07l-0.35,0.03c0.2-0.26,0.39-0.49,0.59-0.74
								C376.78,707.25,377.68,706.33,377.79,706.43z"/>
						</g>
					</g>
				</g>
				<g>
					<g>
						<g>
							<g>
								<path class="st6" d="M374.57,701c0-0.14,5.42-0.26,12.11-0.26c6.69,0,12.11,0.12,12.11,0.26s-5.42,0.26-12.11,0.26
									C379.99,701.26,374.57,701.15,374.57,701z"/>
							</g>
						</g>
						<g>
							<g>
								<path class="st6" d="M368.39,699.54c0.05,0.07,0.17,1.54,0.23,3.57l-0.23-0.23c1.1-0.01,2.29-0.02,3.57-0.04
									c0.06-0.06-0.49,0.49-0.26,0.26v0v0v0v-0.01v-0.02v-0.03v-0.06l0-0.12l0-0.24l0-0.48c0-0.31,0-0.62,0.01-0.92
									c0.01-0.58,0.02-1.14,0.03-1.68l0.23,0.23C369.93,699.71,368.46,699.59,368.39,699.54c-0.07-0.05,1.31-0.17,3.57-0.23
									l0.22-0.01l0,0.23c0.01,0.54,0.02,1.1,0.03,1.68c0,0.3,0,0.61,0.01,0.92l0,0.48l0,0.24l0,0.12v0.06v0.03v0.02v0.01v0v0v0
									c0.23-0.23-0.32,0.32-0.26,0.26c-1.27-0.01-2.47-0.02-3.57-0.04l-0.23,0l0.01-0.22
									C368.22,700.85,368.33,699.46,368.39,699.54z"/>
							</g>
						</g>
					</g>
					<g>
						<g>
							<path class="st7" d="M373.2,698.32c0.11,0.09-0.61,1.16-1.62,2.38c-0.2,0.24-0.4,0.47-0.61,0.72l-0.17,0.2l-0.18-0.17
								c-0.83-0.76-1.37-1.36-1.3-1.45c0.07-0.09,0.75,0.37,1.62,1.07l-0.35,0.03c0.2-0.26,0.39-0.49,0.59-0.74
								C372.19,699.15,373.09,698.23,373.2,698.32z"/>
						</g>
					</g>
				</g>
			</g>
		</g>
	</g>
	<g>
		<g>
			<path class="st6" d="M445.9,660.52c0-0.01,0.07-0.02,0.21-0.02c0.17-0.01,0.37-0.01,0.62-0.02c0.58-0.01,1.38-0.02,2.4-0.04
				c2.13-0.01,5.16-0.03,8.94-0.06c7.66-0.01,18.33-0.02,30.58-0.03l-0.04,0c2.11-0.31,4.34,0.17,6.3,1.2
				c1.96,1.03,3.68,2.6,4.97,4.49c2.23,3.24,3.23,7,3.92,10.55c0.72,3.57,1.22,7.04,1.65,10.35c0.88,6.61,1.42,12.61,2.49,17.52
				c1.11,4.91,2.66,8.71,3.89,11.23c0.61,1.27,1.16,2.22,1.52,2.86c0.18,0.3,0.32,0.54,0.43,0.73c0.09,0.17,0.14,0.25,0.13,0.26
				c-0.01,0-0.07-0.07-0.18-0.23c-0.12-0.18-0.28-0.41-0.48-0.7c-0.39-0.63-0.97-1.56-1.61-2.83c-1.29-2.51-2.9-6.31-4.06-11.24
				c-1.12-4.95-1.7-10.94-2.61-17.54c-0.44-3.3-0.96-6.76-1.68-10.31c-0.7-3.53-1.69-7.21-3.85-10.36c-1.24-1.83-2.9-3.33-4.78-4.33
				c-1.88-0.99-4-1.44-5.99-1.16l-0.02,0l-0.02,0c-12.25-0.06-22.93-0.12-30.58-0.16c-3.78-0.04-6.81-0.07-8.94-0.09
				c-1.02-0.02-1.82-0.04-2.4-0.05c-0.25-0.01-0.45-0.02-0.62-0.02C445.97,660.53,445.9,660.52,445.9,660.52z"/>
		</g>
	</g>
	<g>
		<g>
			<path class="st6" d="M345.78,745.56c0,0,0.3-0.05,0.85-0.22c0.55-0.18,1.38-0.49,2.3-1.14c0.92-0.65,1.93-1.69,2.64-3.19
				c0.71-1.49,1.09-3.41,1.05-5.56c-0.04-2.15-0.33-4.56-1.01-7.09c-0.67-2.54-1.82-5.17-2.99-8.02c-0.58-1.43-1.14-2.92-1.64-4.49
				c-0.51-1.57-0.95-3.22-1.19-4.96c-0.49-3.46-0.08-7.39,1.98-10.77c1.03-1.66,2.49-3.17,4.36-4.08c0.48-0.19,0.94-0.44,1.46-0.55
				c0.25-0.07,0.5-0.15,0.76-0.2l0.79-0.1c1.07-0.16,2.19,0.13,3.13,0.65c1.92,1.03,3.43,2.67,4.79,4.41
				c1.35,1.75,2.53,3.68,3.6,5.7c1.05,2.03,2,4.16,2.77,6.4c0.38,1.12,0.71,2.27,0.94,3.46c0.22,1.2,0.32,2.39,0.5,3.59
				c0.33,2.4,0.75,4.82,1.35,7.23c0.6,2.41,1.37,4.82,2.24,7.22c0.44,1.21,0.86,2.4,1.56,3.47c0.67,1.08,1.55,2.03,2.51,2.89
				c0.96,0.86,2.04,1.61,3.17,2.28c1.14,0.66,2.3,1.31,3.53,1.76c1.23,0.46,2.54,0.74,3.87,0.77c1.31-0.01,2.7-0.15,4.05-0.26
				c2.71-0.24,5.44-0.69,8.02-1.66c2.59-0.95,5.03-2.36,7.31-4c2.33-1.59,4.25-3.7,5.92-6.02c3.34-4.65,5.7-10.06,7.28-15.72
				c0.66-2.55,1.2-5.12,1.53-7.71c0.32-2.58,0.47-5.18,0.69-7.76c0.44-5.15,0.94-10.25,1.95-15.18c0.5-2.47,1.13-4.89,1.84-7.25
				c0.72-2.35,1.43-4.71,2.46-6.93c1.02-2.21,2.29-4.29,3.84-6.11c1.55-1.82,3.33-3.43,5.48-4.49l-0.03,0.01
				c1.79-1.02,3.82-1.68,5.87-1.67c2.05,0,4.08,0.76,5.59,2.09c1.53,1.31,2.59,3.03,3.42,4.76c0.83,1.75,1.46,3.55,2.05,5.33
				c2.43,7.11,3.84,14.17,4.78,20.85c0.94,6.69,1.41,13.02,1.83,18.89c0.42,5.86,1.04,11.28,2.53,15.96
				c1.45,4.68,3.69,8.59,6.34,11.36c2.64,2.79,5.62,4.39,8.14,5.2c2.54,0.83,4.63,0.87,6.01,0.8c0.69-0.06,1.21-0.12,1.56-0.19
				c0.35-0.06,0.53-0.08,0.53-0.08s-0.17,0.05-0.52,0.12c-0.35,0.08-0.87,0.15-1.56,0.23c-1.38,0.1-3.49,0.08-6.06-0.73
				c-2.55-0.79-5.57-2.39-8.26-5.19c-2.7-2.78-4.98-6.72-6.46-11.43c-1.52-4.71-2.16-10.16-2.6-16.02
				c-0.44-5.87-0.93-12.19-1.88-18.86c-0.96-6.66-2.37-13.68-4.81-20.76c-0.6-1.77-1.22-3.56-2.04-5.27
				c-0.82-1.7-1.85-3.36-3.31-4.61c-1.44-1.25-3.35-1.97-5.29-1.97c-1.95-0.02-3.89,0.62-5.63,1.61l-0.03,0.01
				c-2.01,0.99-3.78,2.59-5.29,4.36c-1.52,1.78-2.76,3.83-3.77,6c-1.01,2.18-1.71,4.51-2.43,6.86c-0.71,2.36-1.33,4.76-1.83,7.21
				c-1,4.9-1.5,9.98-1.94,15.12c-0.22,2.57-0.37,5.17-0.69,7.79c-0.34,2.61-0.87,5.2-1.54,7.78c-1.59,5.71-3.97,11.17-7.36,15.89
				c-1.69,2.34-3.67,4.52-6.04,6.13c-2.31,1.66-4.79,3.1-7.44,4.06c-2.64,0.99-5.42,1.45-8.15,1.69c-1.38,0.11-2.71,0.25-4.1,0.26
				c-1.39-0.03-2.75-0.32-4.03-0.8c-1.29-0.47-2.46-1.13-3.61-1.81c-1.15-0.69-2.25-1.45-3.24-2.34c-0.99-0.88-1.89-1.88-2.59-3
				c-0.73-1.11-1.17-2.37-1.6-3.56c-0.87-2.41-1.64-4.83-2.24-7.27c-0.6-2.43-1.02-4.87-1.35-7.28c-0.32-4.87-2.08-9.28-4.14-13.31
				c-1.05-2.01-2.22-3.92-3.55-5.65c-1.33-1.71-2.82-3.32-4.65-4.3c-1.81-1.1-4.01-0.6-5.78,0.2c-1.8,0.86-3.21,2.32-4.22,3.93
				c-2.01,3.27-2.44,7.13-1.96,10.53c0.23,1.71,0.66,3.35,1.16,4.91c0.49,1.56,1.04,3.05,1.61,4.48c1.15,2.85,2.29,5.49,2.96,8.06
				c0.67,2.56,0.96,4.98,0.98,7.15c0.02,2.17-0.37,4.12-1.12,5.63c-0.73,1.52-1.77,2.56-2.71,3.21c-0.95,0.65-1.79,0.95-2.35,1.11
				C346.09,745.54,345.78,745.56,345.78,745.56z"/>
		</g>
	</g>
	<g>
		<g>
			<path class="st6" d="M416,731.17c-0.01,0.01-0.07-0.03-0.18-0.12c-0.11-0.09-0.29-0.22-0.5-0.4c-0.43-0.36-1.04-0.93-1.78-1.71
				c-0.73-0.78-1.6-1.78-2.48-3.03c-0.87-1.25-1.8-2.75-2.46-4.57c-0.61-1.85-1.01-3.91-1.37-6.14c-0.35-2.23-0.63-4.62-1.07-7.1
				c-0.45-2.47-1.11-5.05-2.39-7.45c-0.63-1.2-1.42-2.34-2.4-3.33c-0.49-0.51-1-0.98-1.61-1.25c-0.61-0.3-1.32-0.45-2.02-0.6
				c-2.84-0.5-5.71-0.46-8.45-0.43c-2.75,0.04-5.4,0.19-7.94,0.21c-5.05,0.04-9.6,0.08-13.45,0.12c-3.79,0.01-6.87,0.03-9.07,0.03
				c-1.03-0.01-1.85-0.01-2.46-0.02c-0.56-0.01-0.86-0.02-0.86-0.04s0.3-0.04,0.86-0.06c0.61-0.02,1.43-0.05,2.46-0.08
				c2.19-0.05,5.27-0.12,9.06-0.2c3.84-0.07,8.39-0.14,13.44-0.23c2.53-0.03,5.18-0.19,7.94-0.24c2.76-0.04,5.63-0.08,8.55,0.43
				c0.73,0.15,1.46,0.31,2.14,0.64c0.35,0.13,0.67,0.39,0.97,0.61c0.27,0.25,0.55,0.48,0.79,0.75c1.02,1.03,1.84,2.22,2.48,3.46
				c1.31,2.48,1.98,5.11,2.42,7.61c0.42,2.5,0.69,4.9,1.02,7.12c0.34,2.21,0.73,4.28,1.29,6.08c0.62,1.79,1.51,3.28,2.35,4.53
				c0.85,1.25,1.69,2.26,2.39,3.05c0.71,0.8,1.29,1.39,1.7,1.77C415.8,730.96,416.02,731.16,416,731.17z"/>
		</g>
	</g>
	<g>
		<g>
			<path class="st10" d="M626.14,428.84c0.02-2.39,1.46-4.72,3.59-5.8c0.35-0.18,0.72-0.32,1.11-0.31c0.39,0.02,0.79,0.23,0.92,0.59
				c0.15,0.39-0.04,0.83-0.32,1.13c-0.28,0.3-0.65,0.51-0.97,0.77c-1,0.81-1.49,2.2-1.23,3.46"/>
		</g>
		<g>
			<g>
				<g>
					<g>
						<path class="st0" d="M607.29,385.95c-9.51,0.74-16.61,9.01-15.96,18.52c0.91,13.5,0.63,31.84-5.82,43
							c-11.16,19.32-27.9,22.75-26.61,61.38c1.29,38.63,3,42.72-4.72,52.7c-7.73,9.97-24.47,4.82-31.76,27.57
							c-7.3,22.75-2.15,136.5-13.74,148.51c0,0-9.44,9.01-19.32,8.16h55.46c4.71,0,9.33-1.71,12.68-5.02
							c2.41-2.39,4.4-5.77,4.4-10.43c0-7.83,2.58-118.47,6.87-127.91s26.61-19.08,30.05-40.88c3.43-21.79,2.21-57.05,2.19-63.39
							c-0.03-6.04,1.17-17.78,12.71-31.51c17.44-20.73,15.05-43.41,15.48-51.13c0.43-7.73-3.02-31.03-3.02-31.03L607.29,385.95z"/>
					</g>
					<g>
						<path class="st1" d="M592.84,401.58c0.54-1.95,2.28-3.52,4.27-3.85c2-0.33,4.15,0.58,5.29,2.25c1.65,2.41,1.26,6.01,3.48,7.9
							c1.42,1.21,3.45,1.29,5.32,1.26c5.85-0.11,11.69-0.84,17.39-2.16l-1.28-18.25c0,0-27.76-2.43-31.13,2.13
							C592.81,395.41,592.84,401.58,592.84,401.58z"/>
					</g>
					<g>
						<path class="st2" d="M591.52,410.95c-0.01-4.12,0.93-7.75,1.9-11.76c1.17-4.83,4.54-8.37,8.62-8.95
							c5.17-0.74,10.28,6.73,10.28,6.73s20.09-2.92,29.66-3.63c-0.7-2.49-5.72-8.91-9.33-9.7c-3.61-0.78-7.35-0.69-11.04-0.58
							c-6.6,0.18-13.42,0.41-19.38,3.25c-5.96,2.84-12.11,7.03-10.65,22.33"/>
					</g>
					<g>
						<g>
							<path class="st6" d="M630.64,384.1c0,0.02-0.35,0.06-1,0.12c-0.76,0.06-1.67,0.13-2.72,0.21c-2.3,0.17-5.48,0.41-8.98,0.77
								c-3.5,0.37-6.65,0.83-8.92,1.22c-1.04,0.19-1.94,0.35-2.69,0.49c-0.63,0.12-0.99,0.18-0.99,0.16c0-0.02,0.34-0.12,0.97-0.27
								c0.63-0.16,1.54-0.36,2.67-0.59c2.27-0.45,5.42-0.95,8.93-1.32c3.51-0.37,6.69-0.57,9-0.68c1.06-0.04,1.97-0.08,2.73-0.11
								C630.28,384.07,630.64,384.07,630.64,384.1z"/>
						</g>
					</g>
				</g>
				<g>
					<g>
						<path class="st6" d="M568.36,603.64c0.02,0.14-8.51,1.52-19.04,3.08c-10.54,1.56-19.1,2.71-19.12,2.57
							c-0.02-0.14,8.5-1.52,19.05-3.09C559.78,604.65,568.34,603.5,568.36,603.64z"/>
					</g>
				</g>
				<g>
					<g>
						<path class="st6" d="M570.37,599.48c0,0.14-7.83,0.31-17.49,0.37c-9.66,0.06-17.49-0.01-17.49-0.15s7.83-0.31,17.49-0.37
							C562.54,599.27,570.37,599.33,570.37,599.48z"/>
					</g>
				</g>
			</g>
		</g>
		<g>
			<g>
				<g>
					<path class="st13" d="M491.82,745.91"/>
				</g>
			</g>
			<g>
				<g>
					<path class="st6" d="M491.82,745.91c0,0,0.33-0.05,0.96-0.14c0.64-0.06,1.57-0.25,2.78-0.57c2.4-0.66,5.86-2.07,9.72-4.84
						c0.96-0.69,1.95-1.46,2.94-2.32c0.99-0.85,1.65-2.08,2.21-3.4c1.1-2.66,1.8-5.73,2.41-9.04c1.19-6.63,1.92-14.29,2.51-22.75
						c1.17-16.94,1.65-37.16,2.35-59.61c0.37-11.22,0.74-23.01,1.68-35.2c0.24-3.05,0.54-6.12,0.93-9.21
						c0.41-3.08,0.87-6.2,1.76-9.26c0.5-1.51,1.09-2.99,1.65-4.48l1.07-2.15l0.54-1.08c0.21-0.34,0.43-0.68,0.65-1.02
						c1.62-2.79,3.92-5.2,6.53-7.16c2.63-1.96,5.6-3.35,8.57-4.54c2.96-1.21,5.98-2.26,8.63-3.9l0.99-0.62
						c0.31-0.23,0.6-0.48,0.91-0.73l0.9-0.74l0.78-0.85c0.26-0.29,0.52-0.56,0.77-0.86l0.69-0.94c0.48-0.61,0.9-1.26,1.32-1.91
						c0.85-1.29,1.52-2.66,2.1-4.07c0.5-1.44,0.9-2.9,1.12-4.4c0.46-3,0.54-6.03,0.51-9.02c-0.01-2.99-0.11-5.96-0.21-8.9
						c-0.23-5.87-0.45-11.62-0.67-17.23c-0.08-2.81-0.25-5.57-0.22-8.32c-0.01-1.37-0.01-2.73-0.02-4.08
						c0.02-1.35,0.14-2.69,0.21-4.02c0.07-2.67,0.53-5.27,0.84-7.83c0.54-2.53,0.98-5.05,1.8-7.42c1.48-4.79,3.68-9.17,6.33-12.99
						c2.64-3.84,5.62-7.16,8.38-10.38c2.77-3.21,5.28-6.38,7.39-9.56c0.51-0.81,1.01-1.6,1.5-2.39c0.5-0.78,0.88-1.61,1.31-2.39
						c0.75-1.63,1.41-3.24,1.92-4.84c2.05-6.42,2.65-12.25,3.02-16.96c0.32-4.73,0.31-8.42,0.29-10.92
						c-0.02-1.24-0.04-2.19-0.05-2.84c-0.01-0.64-0.01-0.97-0.01-0.97s0.1,1.31,0.16,3.81c0.06,2.5,0.1,6.19-0.19,10.94
						c-0.33,4.73-0.9,10.58-2.94,17.04c-0.51,1.61-1.16,3.24-1.92,4.89c-0.44,0.79-0.82,1.64-1.32,2.42
						c-0.49,0.79-0.99,1.59-1.5,2.41c-2.11,3.2-4.62,6.4-7.39,9.62c-2.76,3.23-5.72,6.55-8.33,10.37c-2.62,3.8-4.79,8.14-6.25,12.89
						c-0.81,2.35-1.24,4.86-1.77,7.37c-0.3,2.55-0.76,5.13-0.82,7.79c-0.06,1.32-0.18,2.66-0.2,4c0.01,1.35,0.02,2.7,0.02,4.07
						c-0.02,2.73,0.15,5.5,0.23,8.31c0.22,5.61,0.46,11.36,0.69,17.23c0.1,2.94,0.21,5.91,0.22,8.91c0.03,3-0.05,6.05-0.51,9.1
						c-0.22,1.53-0.63,3.03-1.14,4.5c-0.59,1.45-1.28,2.86-2.14,4.17c-0.42,0.66-0.85,1.32-1.34,1.94l-0.7,0.95
						c-0.25,0.3-0.53,0.59-0.8,0.89l-0.81,0.88l-0.92,0.76c-0.31,0.25-0.61,0.51-0.94,0.75l-1.01,0.64
						c-2.73,1.68-5.76,2.74-8.71,3.95c-2.96,1.19-5.88,2.56-8.45,4.48c-2.55,1.92-4.8,4.27-6.4,7.01c-0.21,0.33-0.44,0.66-0.64,1
						l-0.53,1.06l-1.05,2.12c-0.56,1.47-1.14,2.94-1.63,4.43c-0.88,3-1.34,6.11-1.75,9.18c-0.4,3.08-0.69,6.14-0.93,9.18
						c-0.94,12.17-1.32,23.96-1.71,35.18c-0.72,22.44-1.24,42.67-2.46,59.62c-0.62,8.47-1.38,16.13-2.6,22.78
						c-0.63,3.32-1.34,6.4-2.47,9.08c-0.57,1.33-1.26,2.6-2.29,3.47c-1,0.87-2,1.63-2.97,2.32c-3.89,2.76-7.39,4.15-9.81,4.78
						c-1.21,0.31-2.16,0.47-2.8,0.52C492.14,745.89,491.82,745.91,491.82,745.91z"/>
				</g>
			</g>
			<g>
				<g>
					<path class="st6" d="M591.59,409.02c0,0-0.03-0.43-0.09-1.26c-0.05-0.84-0.13-2.08-0.23-3.7c-0.03-0.82-0.02-1.74,0.1-2.74
						c0.1-1.01,0.38-2.08,0.61-3.25c0.54-2.32,1.58-5,3.73-7.3c2.14-2.31,5.27-4.01,8.78-5.41c3.56-1.35,7.64-2.16,12.05-2.54
						c2.21-0.19,4.5-0.29,6.87-0.33c2.36-0.05,4.85,0.09,7.29,0.76c1.22,0.33,2.43,0.75,3.62,1.31c1.18,0.57,2.27,1.35,3.29,2.2
						c1.02,0.86,1.99,1.83,2.84,2.91c0.41,0.55,0.82,1.12,1.13,1.75c0.31,0.63,0.6,1.3,0.61,2.06l0,0.17l-0.18,0.02
						c-4.49,0.39-9.3,1.37-14.34,2.01l0.17-0.23c0.6,4.88,1.2,9.96,1.51,15.23c0.07,1.32,0.12,2.65,0.1,4
						c-0.04,1.36-0.1,2.68-0.1,4.04c-0.01,2.72-0.06,5.48-0.21,8.28c-0.36,5.59-1.17,11.35-2.88,17.02
						c-1.7,5.66-4.21,11.24-7.58,16.43c-3.31,5.25-7.89,9.69-10.99,15.29c-3.21,5.49-5.55,11.69-6.21,18.25
						c-0.36,3.27-0.15,6.6-0.12,9.96c0.04,3.36,0.08,6.74,0.13,10.14c0.05,6.8,0,13.69-0.23,20.65c-0.28,8.03-0.7,15.97-1.72,23.74
						c-0.42,3.89-1.33,7.74-2.76,11.34c-1.48,3.59-3.57,6.86-5.87,9.88c-4.69,6.03-10.52,10.77-15.86,15.68
						c-0.65,0.63-1.3,1.26-1.95,1.89c-0.61,0.66-1.23,1.31-1.82,1.98l-0.81,1.06c-0.28,0.35-0.55,0.7-0.74,1.09l-0.65,1.14
						c-0.19,0.39-0.29,0.81-0.44,1.22c-0.82,3.43-1.17,6.95-1.55,10.4c-1.33,13.84-1.95,27.06-2.56,39.42
						c-0.58,12.36-1,23.88-1.36,34.4c-0.35,10.52-0.63,20.03-0.84,28.39c-0.09,4.18-0.18,8.07-0.26,11.65
						c-0.05,1.78,0.04,3.51-0.27,5.14c-0.29,1.62-0.85,3.11-1.58,4.39c-1.47,2.58-3.49,4.39-5.4,5.61
						c-1.93,1.21-3.77,1.86-5.28,2.23c-1.51,0.37-2.7,0.48-3.49,0.52c-0.79,0.04-1.2,0.02-1.2,0.02s0.1-0.01,0.3-0.02
						c0.2-0.01,0.5-0.01,0.9-0.05c0.79-0.05,1.97-0.18,3.47-0.56c1.49-0.39,3.31-1.04,5.22-2.26c1.89-1.22,3.87-3.02,5.31-5.58
						c0.72-1.27,1.26-2.74,1.54-4.34c0.3-1.59,0.2-3.31,0.25-5.11c0.07-3.58,0.14-7.47,0.22-11.65c0.19-8.36,0.44-17.88,0.77-28.4
						c0.33-10.52,0.74-22.04,1.29-34.41c0.59-12.36,1.19-25.58,2.51-39.45c0.38-3.46,0.71-6.97,1.55-10.48
						c0.16-0.43,0.27-0.88,0.47-1.3l0.67-1.19c0.21-0.41,0.48-0.77,0.77-1.13l0.83-1.09c0.6-0.68,1.22-1.35,1.84-2.01
						c0.65-0.63,1.31-1.27,1.96-1.9c5.36-4.94,11.16-9.66,15.8-15.63c2.28-2.99,4.34-6.21,5.8-9.76c1.41-3.56,2.3-7.32,2.72-11.21
						c1.01-7.74,1.43-15.67,1.72-23.69c0.22-6.95,0.28-13.83,0.23-20.63c-0.04-3.4-0.08-6.78-0.12-10.13
						c-0.03-3.35-0.24-6.7,0.13-10.02c0.67-6.64,3.05-12.91,6.29-18.45c3.14-5.66,7.74-10.12,11.01-15.3
						c3.35-5.14,5.85-10.67,7.54-16.3c1.71-5.63,2.52-11.34,2.88-16.91c0.16-2.79,0.2-5.54,0.22-8.26c0-1.35,0.06-2.73,0.1-4.05
						c0.02-1.33-0.03-2.66-0.1-3.97c-0.3-5.25-0.89-10.32-1.48-15.2l-0.02-0.2l0.2-0.02c5.03-0.62,9.83-1.6,14.37-1.98l-0.17,0.19
						c-0.07-1.32-0.88-2.53-1.66-3.59c-0.83-1.06-1.77-2.01-2.78-2.86c-1.01-0.84-2.07-1.61-3.21-2.16
						c-1.15-0.54-2.35-0.97-3.55-1.3c-2.41-0.66-4.85-0.81-7.2-0.77c-2.36,0.04-4.65,0.12-6.84,0.31c-4.4,0.37-8.46,1.16-11.99,2.48
						c-3.49,1.37-6.6,3.05-8.72,5.31c-2.13,2.26-3.18,4.9-3.73,7.2c-0.24,1.17-0.52,2.24-0.63,3.23c-0.12,1-0.15,1.91-0.13,2.72
						c0.08,1.62,0.14,2.86,0.18,3.7C591.59,408.59,591.59,409.02,591.59,409.02z"/>
				</g>
			</g>
		</g>
		<g>
			<g>
				<path class="st6" d="M642,393.47c0,0.02-0.19,0.06-0.56,0.12c-0.43,0.06-0.97,0.14-1.63,0.24c-1.49,0.2-3.53,0.47-6.01,0.79
					c-5.15,0.63-12.13,1.48-19.85,2.42c-0.54,0.06-1.08,0.13-1.59,0.19l-0.16,0.02l-0.09-0.13c-1.01-1.55-2.1-2.99-3.33-4.19
					c-1.24-1.18-2.66-2.1-4.19-2.4c-1.52-0.32-3.05-0.15-4.36,0.26c-1.31,0.43-2.4,1.18-3.24,2.01c-1.65,1.71-2.46,3.52-2.95,4.74
					c-0.24,0.62-0.4,1.11-0.5,1.45c-0.11,0.33-0.16,0.51-0.17,0.51c-0.02,0,0-0.19,0.08-0.53c0.07-0.35,0.21-0.85,0.42-1.49
					c0.45-1.26,1.21-3.12,2.88-4.92c0.85-0.88,1.97-1.69,3.36-2.16c1.38-0.45,2.96-0.65,4.59-0.32c1.64,0.31,3.16,1.29,4.44,2.5
					c1.28,1.24,2.39,2.71,3.42,4.27l-0.25-0.12c0.5-0.06,1.04-0.12,1.59-0.19c7.73-0.88,14.72-1.68,19.87-2.27
					c2.49-0.26,4.54-0.47,6.03-0.63c0.67-0.06,1.21-0.11,1.64-0.14C641.8,393.46,642,393.45,642,393.47z"/>
			</g>
		</g>
		<g>
			<g>
				<path class="st10" d="M629.16,430.62c-0.01,0.51-0.33,0.96-0.81,1.14l-6.01,2.27c-0.92,0.35-2.15,0.61-2.72-0.19
					c-0.39-0.55-0.2-1.35,0.24-1.85c0.45-0.5,1.09-0.78,1.7-1.04c2.31-0.97,4.84-1.94,7.18-2.9c0.23-0.1,0.48,0.08,0.48,0.33
					L629.16,430.62z"/>
			</g>
			<g>
				<path class="st10" d="M629.38,432.63c0.27,1.23-0.39,2.48-1.57,2.93c-1.76,0.68-4.22,1.62-5.57,2.13
					c-0.92,0.35-2.15,0.61-2.72-0.19c-0.39-0.55-0.2-1.35,0.24-1.85c0.45-0.5,1.09-0.78,1.7-1.04c2.2-0.92,4.61-1.85,6.86-2.77
					c0.42-0.17,0.9,0.08,1,0.52L629.38,432.63z"/>
			</g>
			<g>
				<path class="st10" d="M628.38,435.62c0.43,1.8-0.54,3.65-2.28,4.31c-1.61,0.62-3.28,1.26-4.64,1.77
					c-0.92,0.35-2.15,0.61-2.72-0.19c-0.39-0.55-0.2-1.35,0.24-1.85c0.45-0.5,1.09-0.78,1.7-1.04c2.47-1.04,5.2-2.07,7.67-3.11
					L628.38,435.62z"/>
			</g>
		</g>
		<g>
			<g>
				<path class="st6" d="M603.87,483.05c0.05,0.14-7.31,2.85-16.43,6.06c-9.12,3.21-16.56,5.71-16.6,5.57
					c-0.05-0.14,7.31-2.85,16.43-6.06C596.39,485.41,603.82,482.92,603.87,483.05z"/>
			</g>
		</g>
		<g>
			<g>
				<path class="st6" d="M599.93,487.05c0.04,0.06-0.98,0.79-2.66,1.9c-1.68,1.11-4.04,2.59-6.69,4.16
					c-2.65,1.57-5.08,2.93-6.86,3.87c-1.78,0.95-2.91,1.48-2.94,1.42c-0.04-0.06,1.03-0.72,2.76-1.74c1.87-1.1,4.2-2.48,6.78-4
					c2.57-1.53,4.9-2.92,6.76-4.02C598.8,487.61,599.89,486.99,599.93,487.05z"/>
			</g>
		</g>
	</g>
</g>
<g>
	<g>
		<g>
			<g>
				<g>
					<path class="st6" d="M445.82,364.34c0.01,0.01,0.02,0.12,0.03,0.33c0.01,0.25,0.02,0.54,0.03,0.9
						c0.01,0.84,0.03,1.96,0.06,3.36c0.03,2.92,0.07,6.97,0.11,11.82l-0.23-0.23c4.78-0.01,10.4-0.02,16.4-0.04
						c0.06-0.06-0.49,0.49-0.26,0.26v0v-0.01v-0.02v-0.04v-0.07v-0.14v-0.28l0-0.56l0-1.11c0-0.74,0-1.47,0-2.19
						c0-1.45,0-2.86,0.01-4.24c0.01-2.75,0.02-5.35,0.03-7.74l0.23,0.23c-4.85-0.05-8.9-0.09-11.82-0.11
						c-1.4-0.02-2.52-0.04-3.36-0.06c-0.36-0.01-0.65-0.02-0.9-0.03C445.94,364.36,445.83,364.35,445.82,364.34
						c-0.02-0.02,0.38-0.03,1.13-0.05c0.82-0.01,1.93-0.03,3.31-0.06c2.95-0.03,7.06-0.07,11.96-0.11l0.22,0l0,0.23
						c0.01,2.39,0.02,4.99,0.03,7.74c0,1.38,0,2.79,0.01,4.24c0,0.72,0,1.45,0,2.19l0,1.11l0,0.56l0,0.28v0.14v0.07v0.04v0.02v0.01
						v0c0.23-0.23-0.32,0.32-0.26,0.26c-6-0.01-11.62-0.02-16.4-0.04l-0.23,0l0-0.22c0.05-4.9,0.09-9.01,0.11-11.96
						c0.02-1.38,0.04-2.48,0.06-3.31C445.78,364.72,445.8,364.32,445.82,364.34z"/>
				</g>
			</g>
		</g>
		<g>
			<g>
				<path class="st7" d="M465.64,360.68c0.33,0.27-3.14,5.06-7.76,10.69c-0.97,1.18-1.91,2.3-2.78,3.31l-0.5,0.59l-0.55-0.5
					c-3.84-3.46-6.45-6.09-6.23-6.35c0.22-0.26,3.21,1.94,7.19,5.23l-1.05,0.09c0.83-1.05,1.74-2.19,2.71-3.37
					C461.29,364.75,465.31,360.41,465.64,360.68z"/>
			</g>
		</g>
	</g>
	<g>
		<g>
			<g>
				<g>
					<g>
						<path class="st8" d="M455.73,348.66c0-0.01-0.14-0.01-0.41-0.01c-0.3,0.01-0.69,0.02-1.2,0.03c-0.26,0.01-0.56,0.01-0.89,0.04
							c-0.33,0.05-0.68,0.1-1.06,0.15c-0.38,0.06-0.8,0.11-1.24,0.18c-0.43,0.11-0.89,0.22-1.38,0.34c-1.94,0.5-4.29,1.35-6.69,2.92
							c-2.4,1.54-4.9,3.75-6.92,6.74c-1.99,3-3.52,6.77-3.93,11.01c-0.04,1.06-0.17,2.14-0.07,3.24c0.04,0.55,0.03,1.1,0.11,1.66
							c0.08,0.55,0.17,1.11,0.25,1.67c0.45,2.21,1.11,4.48,2.25,6.59c1.11,2.11,2.55,4.13,4.3,5.92c1.79,1.76,3.87,3.28,6.2,4.45
							c2.32,1.18,4.88,2,7.56,2.32c0.66,0.13,1.34,0.13,2.01,0.17c0.68,0.04,1.36,0.07,2.04,0.04c1.36-0.06,2.73-0.23,4.08-0.52
							c2.93-0.62,5.7-1.82,8.12-3.42l-0.25,0.02c2.82,1.13,5.58,2.24,8.27,3.32l0.49,0.2l-0.14-0.51c-0.83-3.04-1.65-5.99-2.43-8.85
							l-0.04,0.22c2.32-3.09,3.8-6.61,4.42-10.11c0.31-1.75,0.44-3.49,0.32-5.18c-0.04-0.84-0.08-1.68-0.23-2.49
							c-0.06-0.41-0.13-0.81-0.19-1.21c-0.07-0.4-0.2-0.78-0.29-1.17c-1.6-6.23-5.43-10.83-9.23-13.46c-1.9-1.34-3.78-2.3-5.49-2.9
							c-0.43-0.15-0.84-0.3-1.24-0.44c-0.41-0.1-0.8-0.2-1.17-0.3c-0.37-0.09-0.73-0.18-1.07-0.27c-0.34-0.07-0.68-0.1-0.99-0.15
							c-0.63-0.08-1.18-0.19-1.66-0.21c-0.47-0.02-0.88-0.03-1.22-0.04c-0.31-0.01-0.55-0.01-0.74-0.02
							C455.81,348.65,455.73,348.66,455.73,348.66c0,0.01,0.08,0.02,0.25,0.03c0.19,0.01,0.43,0.03,0.74,0.06
							c0.34,0.02,0.74,0.05,1.21,0.08c0.48,0.04,1.02,0.16,1.64,0.25c2.44,0.45,6.09,1.42,9.82,4.14c3.72,2.63,7.46,7.19,9,13.31
							c0.09,0.38,0.21,0.76,0.28,1.15c0.06,0.39,0.12,0.79,0.18,1.19c0.15,0.79,0.19,1.61,0.22,2.44c0.11,1.65-0.03,3.36-0.34,5.08
							c-0.61,3.43-2.07,6.87-4.35,9.89l-0.07,0.1l0.03,0.12c0.78,2.86,1.59,5.81,2.41,8.85l0.35-0.31c-2.7-1.09-5.46-2.2-8.27-3.33
							l-0.13-0.05l-0.12,0.08c-2.37,1.56-5.07,2.73-7.94,3.34c-1.32,0.28-2.66,0.45-3.99,0.5c-0.67,0.03-1.33,0.01-1.99-0.04
							c-0.66-0.04-1.32-0.04-1.97-0.17c-2.61-0.31-5.12-1.11-7.39-2.26c-2.27-1.14-4.32-2.63-6.07-4.35
							c-1.72-1.75-3.13-3.72-4.23-5.78c-1.12-2.06-1.77-4.28-2.22-6.45c-0.08-0.55-0.17-1.09-0.25-1.63
							c-0.08-0.54-0.07-1.09-0.11-1.62c-0.11-1.08,0.02-2.13,0.05-3.18c0.38-4.16,1.86-7.88,3.8-10.84c1.97-2.96,4.41-5.16,6.77-6.7
							c2.36-1.57,4.67-2.44,6.59-2.97c0.48-0.13,0.94-0.25,1.36-0.36c0.44-0.07,0.84-0.14,1.22-0.2c0.38-0.06,0.73-0.12,1.05-0.17
							c0.32-0.04,0.62-0.04,0.88-0.06c0.5-0.04,0.9-0.07,1.19-0.09C455.59,348.69,455.73,348.67,455.73,348.66z"/>
					</g>
				</g>
			</g>
		</g>
	</g>
</g>
</svg>
